<svg xmlns="http://www.w3.org/2000/svg" viewBox="0 0 6000 4000" id="farmer-using-drone-for-farm-monitoring"><path fill="#b1e9fa" d="M4945.65,1859.45q-1.33,3.94-2.74,7.84c-56.73,157-191.37,229.82-229.76,248.91,13.4,43.92,12.86,80.13,9.57,105.31q-.33,2.55-.72,5.07c-25.07,163.49-216,238.91-229,243.84L4191.62,2478c-27.15-2.08-43.29-3.79-43.29-3.79l-2769.72,9.54a497.13,497.13,0,0,1-79.13-139c-31.87-86.31-65.65-230.45-68-321.15-5.6-215.73,92.54-465.18,507.09-521.61,0-145,83-287.81,123.27-342.63a420.75,420.75,0,0,1,51.42-57.92c170.67-159.89,467.7-173.47,721.88-12.84q9.91,6.26,19.72,12.87c6.53-134.73,105.72-239.23,220.19-248.91,84.63-7.16,169.17,38.24,220.19,114.88,46.1,50,121.66,117.59,229.76,153.18,315.88,104,557.4-180.78,852-95.74,90.28,26.06,210.94,94.16,325.5,287.21,39.31-6.61,166.47-23.1,283.76,49q6.54,4,13,8.4C4956.61,1476,5002.36,1692.08,4945.65,1859.45Z"></path><path fill="#d7edfd" d="M4945.65,1859.45c-117-37.5-152.95,47.67-152.95,115-158.72-122.72-253.65,4-253.65,64.68-251.72-145.32-520.22-127.47-591.1-18.85-115.24-45.94-442.09-20.25-442.09-20.25s175-282.91,422-237c0-162.24,165.35-193.55,335.57-95.26,0-192.45,270.78-190.12,327.78-55.84,42-137.16,123.27-211.1,195.06-250.84q6.54,4,13,8.4C4956.61,1476,5002.36,1692.08,4945.65,1859.45Z"></path><circle cx="2947.57" cy="1804.15" r="240.38" fill="#caf3ff"></circle><path fill="#d7edfd" d="M2832.51,1689.1c89.07,136.81,27.84,350.58,27.84,350.58s-99.8-205.09-301.35-230.93c68.15-129.44,0-207.18-151.62-119.65,23.23-125.52,16.7-179.58-141.7-141.22-18.51-267.64-212-391.51-352.43-446.5,170.67-159.89,467.7-173.47,721.88-12.84,45,39.06,153.94,130.13,74.2,327.72C2886.23,1402.83,2988.67,1452.49,2832.51,1689.1Z"></path><path fill="#5fc2e8" d="M4722,2226.58c-25.07,163.49-216,238.91-229,243.84L4191.62,2478c-27.15-2.08-43.29-3.79-43.29-3.79l-2769.72,9.54a497.13,497.13,0,0,1-79.13-139c108.91-82.7,405.79-281.57,742.4-281.57,425,0,526-179.21,652.28-179.21s317.42.23,561.17,82.38c369.94-53.21,575.38-78.66,630.43-46.88C3934.54,1947.57,4524.78,2036.12,4722,2226.58Z"></path><polygon fill="#611345" points="2149.16 1777.32 2143.5 2133.42 2567.73 2166.09 2573.38 1800.18 2149.16 1777.32"></polygon><polygon fill="#b53353" points="2808.06 1505.25 2327.98 1505.25 2124.51 1775.91 2548.6 1800.18 2808.06 1505.25"></polygon><path fill="#fff" d="M2548.6,1800.18h518.93l-223.14-278.13q-36.33-33.6-72.65,0Z"></path><path fill="#fe4775" d="M2573.38,1800.18l-5.65,365.91,467.45-22.4,7.57-343.51-201.26-251.86q-33.43-27.71-66.86,0Z"></path><rect width="63.21" height="49.19" x="2729.18" y="1696.33" fill="#235d8a" stroke="#fff" stroke-linecap="round" stroke-linejoin="round" stroke-width="6.55"></rect><rect width="67.01" height="49.19" x="2792.39" y="1696.33" fill="#235d8a" stroke="#fff" stroke-linecap="round" stroke-linejoin="round" stroke-width="6.55"></rect><rect width="51.56" height="49.19" x="2859.4" y="1696.33" fill="#235d8a" stroke="#fff" stroke-linecap="round" stroke-linejoin="round" stroke-width="6.55"></rect><polygon fill="#451320" points="2684.46 2160.49 2694.97 1850.28 2950.53 1844.96 2970.76 2146.78 2684.46 2160.49"></polygon><polygon fill="#6b1e31" points="2694.97 2168.56 2704.89 1855.64 2946.35 1850.28 2965.47 2154.72 2694.97 2168.56"></polygon><polygon fill="#235d8a" stroke="#fff" stroke-linecap="round" stroke-linejoin="round" stroke-width="6.55" points="2273.87 1828.72 2275.1 1863.65 2357.29 1866.54 2360.14 1832.24 2273.87 1828.72"></polygon><polygon fill="#235d8a" stroke="#fff" stroke-linecap="round" stroke-linejoin="round" stroke-width="6.55" points="2360.14 1832.24 2357.29 1866.54 2420.02 1868.75 2421 1834.71 2360.14 1832.24"></polygon><polygon fill="#235d8a" stroke="#fff" stroke-linecap="round" stroke-linejoin="round" stroke-width="6.55" points="2503.56 1838.07 2421 1834.71 2420.02 1868.75 2503.56 1871.69 2503.56 1838.07"></polygon><polygon fill="#235d8a" stroke="#fff" stroke-linecap="round" stroke-linejoin="round" stroke-width="6.55" points="2199.88 1825.71 2199.88 1861 2275.1 1863.65 2273.87 1828.72 2199.88 1825.71"></polygon><polygon fill="#3b101b" points="2729.18 1876.03 2905.91 2149.88 2918.14 2149.3 2742.98 1871.69 2729.18 1876.03"></polygon><polygon fill="#3b101b" points="2918.14 1877.36 2729.18 2158.35 2735.09 2160.49 2922.79 1885.3 2918.14 1877.36"></polygon><path fill="#80243a" d="M2347.21 1518.33a5 5 0 00-7 1l-181.7 245.23a5 5 0 008 6l181.7-245.23A5 5 0 002347.21 1518.33zM2389.2 1518.33a5 5 0 00-7 1L2200.5 1764.6a5 5 0 008 6l181.7-245.23A5 5 0 002389.2 1518.33zM2431.18 1518.33a5 5 0 00-7 1l-181.7 245.23a5 5 0 108 6l181.7-245.23A5 5 0 002431.18 1518.33zM2473.17 1518.33a5 5 0 00-7 1l-181.7 245.23a5 5 0 008 6l181.7-245.23A5 5 0 002473.17 1518.33zM2515.15 1518.33a5 5 0 00-7 1l-181.7 245.23a5 5 0 008 6l181.7-245.23A5 5 0 002515.15 1518.33zM2557.14 1518.33a5 5 0 00-7 1l-181.7 245.23a5 5 0 008 6l181.7-245.23A5 5 0 002557.14 1518.33zM2599.12 1518.33a5 5 0 00-7 1l-181.7 245.23a5 5 0 008 6l181.7-245.23A5 5 0 002599.12 1518.33zM2641.11 1518.33a5 5 0 00-7 1L2452.42 1764.6a5 5 0 008 6l181.7-245.23A5 5 0 002641.11 1518.33zM2683.09 1518.33a5 5 0 00-7 1L2494.4 1764.6a5 5 0 008 6l181.69-245.23A5 5 0 002683.09 1518.33zM2725.08 1518.33a5 5 0 00-7 1l-181.7 245.23a5 5 0 008 6l181.7-245.23A5 5 0 002725.08 1518.33z"></path><path fill="#8de30c" d="M4381,2164.92c-22.17,130.9-35.84,123-35.84,123l-282.79-77.66-419.92-59.41a179.25,179.25,0,0,1-23.34-1.1c-34.94-3.81-93.75-19.93-64.4-86.64-34.22-66.71,39.92-60.29,39.92-60.29,1.81-.79,29.92-12.61,63.53-11.68,20.65.57,43.38,6,63.36,21.66s29.68,36,34.22,48.47l-.06-.6c-.06-.65-.17-1.8-.31-3.37l0-.29c-3.49-46.65,22-89.92,61.71-106.94,24.14-10.34,51.44-10.1,76.07-.81a112.61,112.61,0,0,1,60.8,55c10.9-59.26,68-80.91,126.74-70.89,59.59,10.17,100.66,49.94,90,110.1C4170.61,2043.46,4360.15,2039.63,4381,2164.92Z"></path><path fill="#72b80a" d="M3619.09 2149.76c-34.94-3.81-93.75-19.93-64.4-86.64-34.22-66.71 39.92-60.29 39.92-60.29 1.81-.79 29.92-12.61 63.53-11.68C3558.65 2012.19 3611.49 2133.45 3619.09 2149.76zM3898.91 2009.65c-7.46-21.39-32.93-19-43.39 12.35-23.29-37.55-65.82-5.47-42.77 17.58-39.45-10-23.29 26.61-23.29 69.39-18.52-10.7-33.74-47.69-33.74-47.69l-.06-.6c-.06-.65-.17-1.8-.31-3.37l0-.29c-3.49-46.65 22-89.92 61.71-106.94 24.14-10.34 51.44-10.1 76.07-.81a207.36 207.36 0 0121.35 26.63S3934.41 2002.51 3898.91 2009.65zM3953.9 2004.25s-20.06-39.37 13.49-36.06c-8.86-28.06 21.44-48.38 33.91-29.49 5.71-29.22 39.21-17.82 46.7-3.56 8.19-28.51 23.16 1.07 16.75 16 14.61 1.78 18.18 16 14.61 27.09-17.84-15-44.91-13.9-44.91 3.56-24.69-14.25-33.15 5.71-33.15 25.67C3980.63 1986.82 3953.9 1994.94 3953.9 2004.25z"></path><path fill="#8de30c" d="M3650.93 1992.92s11.54-20.24 27.8-10.85a12.89 12.89 0 018.55 9s8.79-9 16.64-1.18 7.12 11.88 7.12 11.88 19.5-4.66 21.87 9.75c15.92 6.89 21.62 34.21 18.77 44.19s-27.57-27.32-27.57-27.32zM4164 2045.75s23.28-43.24 45.14-17.1c32.8-9 43.25-6.66 43.25 11.4 32.32-2.85 43.25 1.9 43.25 21.39 25.66-3.11 45.62 6.65 42.77 25.66 36.6 0 39.32 15.27 35.65 29.94 35.64 35.64 26.37 50.62 17.1 59.88 0 46.1-41.34 39.45-43.24 39.45S4164 2045.75 4164 2045.75z"></path><path fill="#72b80a" d="M4109.3 2118.48s55.13-18.05 66.54 0c15.2-23.3 34.21-18.53 34.21 0 27.57-23.3 45.16-10.88 50.86 6.17 24.47-24.48 28.36-34.7 36.59-30 0-38-29.47-53.7-42.77-32.79-21.63-21.62-43.72-20.91-47.29 4-22.57-16.39-43.48-18.77-43.48 1.19C4144.47 2061.44 4109.3 2086.64 4109.3 2118.48zM3634.05 2085.2c-1.82-.53 28.52 39.92 28.52 84.12l68 19s9.94-54 29.94-65.59L3721 2154.11s9.6-52.11 23.76-68.91c-31.84 38.49-37.07 59.88-37.07 59.88s-13.78-74.61 6.65-106c-33.27 33.27-22.34 91.72-22.34 91.72l-24.71-66.53c7.61 39.92 8.56 62.73 8.56 62.73S3645.46 2088.53 3634.05 2085.2zM3830.57 2085.53s58.81 73.81 58.81 124.07l63.83-14.78s16.37-69.22 34.43-76.35c-38.5 14.25-48.48 49.9-48.48 49.9s10.93-83.17 30.89-98.38c-30.89 13.31-50 69.39-50 80.32-7.78-7.79-18.52-1.59-18.52-1.59s-7.27-62.81 13.88-84c-23.05 23-31.37 68-29 81.75C3875 2113.71 3830.57 2085.53 3830.57 2085.53zM4152.07 2243.46s-5-42.06-25.66-62.74c32.08 11.41 37.55 40.64 37.55 40.64s8.31-48.48 0-71.29c22.33 32.08 18.77 66.63 18.77 66.63s7.84-56.65 57-63.06c-26.57 32.6-33.51 71.28-33.51 71.28s30.66-32.79 57-22.81c-33.57 9.27-35.64 33.51-35.64 33.51s17.54-21.95 50.61-2.86c-39.21 2.86-52.75 39.21-52.75 39.21zM1818.9 1618.51s11.68 115.91 151.32 116.3C1957.49 1592.12 1818.9 1618.51 1818.9 1618.51zM1797.35 1763.69s18.7 115 158.1 106.91C1934.09 1728.94 1797.35 1763.69 1797.35 1763.69zM1986.5 1736.71s40.27-137.24 196.42-84.24C2143.62 1736.76 2036.83 1741.24 1986.5 1736.71zM1979 1872.07s53.84-132.5 203.88-64.09C2135.36 1887.9 2028.66 1881.64 1979 1872.07zM2013.61 1593.17s59.6-130 206.5-55.09C2169.09 1615.84 2062.76 1604.9 2013.61 1593.17zM1993.4 1580.63s-160.08-11.77-112.27-150.06C1965.06 1449.39 2004.53 1528.85 1993.4 1580.63zM2027.21 1462s91.54-117.25 205.93-54C2223.84 1517.74 2053.73 1481.85 2027.21 1462zM2022.82 1453.93s30.39-145.62-91.81-192.08C1853.29 1339.79 1990.55 1446.48 2022.82 1453.93z"></path><path fill="#72b80a" d="M2082.3,1341s54-80.83,160.47-23.2C2213.63,1363.45,2143.78,1398.64,2082.3,1341Z"></path><path fill="#72b80a" d="M2085.27 1344.12s-122.78-40-62.53-147.86C2114.82 1259.08 2085.27 1344.12 2085.27 1344.12zM2107.57 1297s-49.59-146.75 88.21-178C2255.87 1233 2115.55 1299.48 2107.57 1297z"></path><path fill="#72b80a" d="M2102.08,1288.87c-38.66,56.63-64.5,121.45-83.61,187-20.69,71-33.54,144.16-42.2,217.54-8.17,69.1-12.38,138.65-13.78,208.2q-1.6,80.12,1.78,160.25c1,24.28,2,48.69,4.4,72.89l.09,1c.86,9.54,15.87,9.63,15,0-1.79-19.71-2.85-39.5-3.82-59.27q-3.68-75.18-2.82-150.5c.71-67.76,4-135.54,10.89-203,7.4-72.68,18.9-145.16,37.39-215.88,17.33-66.27,40.8-131.84,76.6-190.53q6.26-10.24,13-20.17C2120.49,1288.45,2107.5,1280.94,2102.08,1288.87Z"></path><path fill="#69a31a" d="M1510.8,2375.91s-366.33-226.07-674.29,0c169,149.7,631.77,96.17,631.77,96.17Z"></path><path fill="#cbe172" d="M1445.66,2451.67a18.56,18.56,0,0,0-1.56-3.46c-1.64-2.94-4.9-6.84-9.93-10.81-10-8-26.69-16.39-47.94-24.16-42.56-15.58-103.6-29.29-171.67-37.59s-130.36-9.59-175.3-7.65c-22.47.95-40.62,2.74-53.08,4.52-6.23.88-11,1.74-14.28,2.37s-4.93,1-4.93,1l5-.2c3.3-.11,8.16-.21,14.4-.19,12.49,0,30.53.65,52.77,2.1,44.47,2.88,105.71,9,173.07,17.13s128.18,17,171.18,27.69c21.46,5.32,38.46,11.22,49.06,17.44a39,39,0,0,1,10.94,8.79,17.83,17.83,0,0,1,2,3.08l.56,1.15S1445.9,2452.48,1445.66,2451.67Z"></path><path fill="#72b80a" d="M1383.62 1741.91s79.35 120.9 233.31 41.25C1521.08 1633.36 1383.62 1741.91 1383.62 1741.91zM1429.75 1875.64s79.35 120.9 233.3 41.25C1567.2 1767.09 1429.75 1875.64 1429.75 1875.64zM1635.94 1775.9s-34.39-174.18 167.93-205.4C1809 1685.84 1694 1752 1635.94 1775.9zM1690.54 1906.62s-6-177.44 198.73-175.76C1875.76 1845.52 1751.63 1892.38 1690.54 1906.62zM1599 1621.65s-34.39-174.19 167.93-205.4C1772 1531.59 1657 1597.78 1599 1621.65zM1569.56 1623.69s-169.74 104.38-222-69.58C1445.73 1512.13 1543.17 1563.47 1569.56 1623.69zM1533.09 1452.42s-7.65-184.51 151.43-216.59C1763.88 1347.05 1574.12 1449.85 1533.09 1452.42zM1522.43 1448.28s-88.31-162.18-241.25-107.89C1270.31 1476.58 1485.92 1467.17 1522.43 1448.28zM1475.31 1264.46s-13.92-119.85 133.15-150.94C1617.59 1180.12 1579.79 1269.55 1475.31 1264.46zM1458.73 1264.47s-148.32 60.83-178-89.61C1418.32 1160.26 1458.73 1264.47 1458.73 1264.47zM1438.65 1152.37s-164.89-99-59.69-239.33C1527.46 972.58 1448.18 1148.29 1438.65 1152.37z"></path><path fill="#72b80a" d="M1835.31 2225.27c-23-36.51-43.41-74.55-62.51-113.19-21.75-44-41.76-88.84-60.66-134.12-20.42-48.94-39.6-98.4-57.93-148.17q-28.26-76.69-54-154.29-25.45-76.15-49.09-152.9-22.2-71.8-43.07-144-18.45-63.67-36-127.61-14.19-51.78-27.81-103.72-9.42-36-18.52-72.06c-2.81-11.17-5.24-22.5-8.33-33.6-.14-.48-.24-1-.35-1.45-2-8.36-14.92-4.82-12.9 3.56q2.76 11.44 5.63 22.86 8 32 16.29 64 12.59 48.54 25.72 97 16.66 61.43 34.14 122.62 20.25 70.92 41.69 141.49 23.1 76 47.78 151.51 25.45 77.67 53 154.64c18.21 50.66 37.22 101 57.4 150.94 18.9 46.74 38.79 93.1 60.3 138.7 19.12 40.51 39.49 80.48 62.19 119.11q7.56 12.87 15.51 25.53C1828.33 2239.28 1839.91 2232.58 1835.31 2225.27zM1096.18 2215.72s100.78 56.09 180.11-57.12C1153.18 2088.19 1096.18 2215.72 1096.18 2215.72zM1178.22 2293.16S1279 2349.25 1358.33 2236C1235.22 2165.64 1178.22 2293.16 1178.22 2293.16zM1287 2146.44s-88.7-110.36 42.72-207.22C1376 2018.84 1319.21 2108.13 1287 2146.44zM1374 2218.63s-69.83-123.18 75.44-197.68C1482.25 2107 1411.86 2186 1374 2218.63zM1203.92 2051.1s-88.71-110.37 42.71-207.23C1292.87 1923.49 1236.08 2012.78 1203.92 2051.1z"></path><path fill="#72b80a" d="M1593.47,2389.93c-29.66-17.27-58.09-36.6-85.8-56.82-31.56-23-62.21-47.31-92.26-72.27q-48.81-40.56-95.76-83.3-48.36-43.77-95.29-89.07-45.94-44.22-90.85-89.5-42.27-42.59-83.78-85.93-36.33-37.9-72.11-76.34-29.19-31.35-58-63-20-22-39.89-44.26c-6.08-6.81-12.1-13.69-18.18-20.51l-.78-.89c-4.48-5.12-13.17,1.08-8.64,6.26,4.12,4.72,8.28,9.4,12.45,14.09q17.51,19.7,35.2,39.22,26.87,29.68,54.07,59,34.79,37.58,70.08,74.69,40.35,42.42,81.39,84.17,44.64,45.4,90.24,89.86,46.71,45.49,94.66,89.72,47.19,43.43,96,85.11c30.72,26.12,62,51.59,94.19,75.91,28.58,21.6,57.87,42.29,88.28,61.25q10.11,6.3,20.39,12.29C1595,2403.08,1599.35,2393.36,1593.47,2389.93Z"></path><path fill="#72b80a" d="M1183.86 2063.44s-81.35 136.51-182.6 32.91C1055.11 2030.38 1143 2030.64 1183.86 2063.44zM1094.77 1955.89s-73.64-127.54 26.92-209C1218.89 1796.11 1122.81 1938.91 1094.77 1955.89zM1085.7 1956.91s-122.36-82-210.36 13C918 2070.13 1066.89 1983.76 1085.7 1956.91zM984.44 1844.44s-54.15-79.54 38.28-155.89C1053.79 1732.24 1060.15 1809.41 984.44 1844.44zM972.72 1850.58s-82.31 97.82-158.91 2.5C905.64 1791.89 972.72 1850.58 972.72 1850.58zM917.09 1778.79s-153.1-9-130.67-147C913.37 1618.92 922.31 1772.39 917.09 1778.79zM1384.32 2410.82S1156.66 2328.46 1062 2581c213.27 137 437.61-61.85 437.61-61.85z"></path><path fill="#cbe172" d="M1481.56,2471.71l-1.82-.78-2.22-.84c-1.62-.59-3.48-1.31-5.63-2l-3.4-1-3.8-1-2-.53-2.13-.47c-1.46-.3-3-.67-4.55-.94a170.37,170.37,0,0,0-21.66-2.63c-16.17-1-35.55-.09-56.62,3.29a404.31,404.31,0,0,0-67,17.11,545.86,545.86,0,0,0-63.37,26.59c-18.93,9.32-35.45,18.66-49.07,26.91s-24.32,15.42-31.62,20.51-11.19,8.11-11.19,8.11,18-7.94,47.17-20c14.57-6,31.93-13.1,51.26-20.63s40.6-15.52,63.08-23.25,44.06-14.4,63.93-19.4,38.06-8.2,53.5-9.58c7.72-.69,14.75-1,20.94-.93,1.55,0,3,.07,4.48.1l2.12.06,2,.13,3.82.24,3.45.35c2.19.18,4.12.49,5.8.72l2.33.33,1.92.36,3.52.63Z"></path><path fill="#69a31a" d="M1554.41,2336.18s-193.26-149.68-176.49-407.62c229.2,155.53,314,256.67,285.13,360.08C1605.48,2346.21,1554.41,2336.18,1554.41,2336.18Z"></path><path fill="#cbe172" d="M1607.53,2280.14a244.49,244.49,0,0,0-12.15-61.25,314.32,314.32,0,0,0-13.65-34.31,359.74,359.74,0,0,0-18.74-34.83c-7-11.55-14.54-22.41-22.15-32.59s-15.42-19.63-23.11-28.37a519.71,519.71,0,0,0-43.52-43.74c-13.09-11.67-24.23-20.45-32.08-26.3s-12.38-8.8-12.38-8.8,3.78,3.87,10.37,11,16,17.61,27.21,30.8,24.17,29.11,37.8,47.27c6.82,9.08,13.77,18.73,20.75,28.86s13.92,20.78,20.68,31.87,13,22.08,18.64,32.93,10.63,21.5,15,31.83a303.09,303.09,0,0,1,17.84,56.85,242.38,242.38,0,0,1,4.82,40.35q.07,3.65.12,6.45c0,1.87,0,3.45,0,4.74,0,2.57,0,3.92,0,3.92s.29-1.32.86-3.83c.27-1.26.65-2.81,1-4.67s.7-4,1.12-6.43A195.62,195.62,0,0,0,1607.53,2280.14Z"></path><path fill="#523418" d="M1276.26,2649.18s8.38,77,8.38,103.71v42.29c0,29.91,8.38,27.52,8.38,44.27v41.89c0,16.75,21.54,33.51,21.54,51.46s-13.17,43.08,23.93,55,114.41,46.38,177.11,82.57,210.62,50.27,368.58,86.17,545.69,83.76,746.73,95.73,421.24,74.2,591.16,59.84,253.7-33.51,320.72-33.51,337.46-23.94,517-57.44,251.19-72,325.49-114.88,119.67-74.2,136.43-91,141.21-64.62,158-107.7,23.53-298.86,23.53-298.86L4583.9,2630Z"></path><path fill="#6b4d2b" d="M1255.25,2587.45s21,143.6,21,175.51,142.92,93.73,185.09,118.08,223.38,121.26,351,121.26,367,67,481.86,86.16,165.94,22.34,277.64,22.34,268,35.1,306.35,35.1,338.26-19.14,446.76-19.14,210.62-3.19,469.1-44.68,255.29-31.91,398.9-63.82,257.95-81.55,293.58-102.12,194.66-95.74,210.62-162.75,15.8-165.94,15.8-165.94Z"></path><ellipse cx="2984.12" cy="2587.45" fill="#233903" rx="1728.87" ry="446.76"></ellipse><ellipse cx="2984.12" cy="2545.96" fill="#72b80a" rx="1728.87" ry="446.76"></ellipse><path fill="#755d46" d="M1419.1 2831.9c7.87 4 12.58 4.36 13.93 4.36 0-3.64-.11-12.15.38-15.66-30.69-8.66-53.69-59.18-95.12-48 .94 2.69 4.36 12.25 5.06 14.82C1370.57 2780.48 1399.89 2825.19 1419.1 2831.9zM1428.16 2904.24c-15.7-12-33.13-28.59-54.9-25.69l2 15.53h0c27.64-1 42.47 31.55 69.63 35.06l2.68-15.44C1440.35 2912.38 1434.44 2908.77 1428.16 2904.24z"></path><polygon fill="#755d46" points="1477.8 2890.08 1477.8 2890.08 1477.8 2890.08 1477.8 2890.08"></polygon><path fill="#755d46" d="M1541.46 2902a184.65 184.65 0 01-54.94-24.92l-8.72 13a199.87 199.87 0 0059.62 27zM1536.41 2866.07a40.85 40.85 0 0124.12-3l2.82-15.41a56.5 56.5 0 00-33.45 4.15l6.51 14.25zM1592.14 2919.55l.09 15.67a56.84 56.84 0 0123.78 5.13l6.52-14.25A72.41 72.41 0 001592.14 2919.55z"></path><polygon fill="#755d46" points="1592.23 2935.22 1592.23 2935.22 1592.23 2935.22 1592.23 2935.22"></polygon><polygon fill="#755d46" points="1492.63 2967.1 1492.63 2967.1 1492.63 2967.1 1492.63 2967.1"></polygon><path fill="#755d46" d="M1530.34 2978.05a98.74 98.74 0 01-25.84-21.18l-11.87 10.23a114.84 114.84 0 0066.39 37.77l2.73-15.43A98.45 98.45 0 011530.34 2978.05zM1384.6 2976.84l32.71 4 1.91-15.55-32.71-4z"></path><polygon fill="#755d46" points="1384.6 2976.84 1384.6 2976.84 1384.6 2976.84 1384.6 2976.84"></polygon><path fill="#755d46" d="M1559.34,3040.82a173.88,173.88,0,0,0,46.82,14.15l2.37-15.48a158.16,158.16,0,0,1-42.58-12.88Z"></path><polygon fill="#755d46" points="1559.34 3040.82 1559.34 3040.82 1559.34 3040.82 1559.34 3040.82"></polygon><polygon fill="#755d46" points="1702.79 3037.03 1702.79 3037.03 1702.79 3037.03 1702.79 3037.03"></polygon><path fill="#755d46" d="M1702.79 3037l18.35 12 8.56-13.12-18.35-12zM1682.75 2979.07l51.06 7.92 2.41-15.48-51.07-7.93z"></path><polygon fill="#755d46" points="1682.75 2979.07 1682.75 2979.07 1682.75 2979.07 1682.75 2979.07"></polygon><polygon fill="#755d46" points="1716.7 2912.11 1716.7 2912.11 1716.7 2912.11 1716.7 2912.11"></polygon><path fill="#755d46" d="M1716.7 2912.11a180.59 180.59 0 0140.47 8.65l5-14.85a196.27 196.27 0 00-44-9.39zM1848.35 2998.45a20.91 20.91 0 01-14.74-6.19l-11.25 10.9a36.42 36.42 0 0029 10.83l-1.34-15.61C1849.46 2998.43 1848.9 2998.45 1848.35 2998.45z"></path><polygon fill="#755d46" points="1822.36 3003.16 1822.36 3003.16 1822.36 3003.16 1822.36 3003.16"></polygon><polygon fill="#755d46" points="1910.04 2970.83 1910.04 2970.83 1910.04 2970.83 1910.04 2970.83"></polygon><path fill="#755d46" d="M1908.57,2955.23l1.47,15.6a130.38,130.38,0,0,1,71.08,13.6l7.12-13.95A146,146,0,0,0,1908.57,2955.23Z"></path><polygon fill="#755d46" points="1878.98 3066.15 1878.98 3066.15 1878.98 3066.15 1878.98 3066.15"></polygon><path fill="#755d46" d="M1912.07,3061.61a45.74,45.74,0,0,1-24.06-8.25l-9,12.79a61.27,61.27,0,0,0,32.37,11.11Z"></path><polygon fill="#755d46" points="1911.95 3019.69 1911.95 3019.69 1911.95 3019.69 1911.95 3019.69"></polygon><path fill="#755d46" d="M1912 3019.69a300.08 300.08 0 0062.3 24.19l4-15.15a283.56 283.56 0 01-59-22.92zM1819.73 3092.22a100.43 100.43 0 00-29.85-16.88l-5.27 14.76a84.67 84.67 0 0125.2 14.24z"></path><polygon fill="#755d46" points="1784.62 3090.1 1784.62 3090.1 1784.62 3090.1 1784.62 3090.1"></polygon><polygon fill="#755d46" points="1650.1 3098.2 1650.1 3098.19 1650.1 3098.19 1650.1 3098.2"></polygon><path fill="#755d46" d="M1649.21 3082.55l.89 15.64a78.7 78.7 0 0140.55 8.73l7.24-13.89A94.25 94.25 0 001649.21 3082.55zM1899.52 3146.79l44.28 1.2.42-15.66-44.27-1.2z"></path><polygon fill="#755d46" points="1899.52 3146.8 1899.52 3146.79 1899.52 3146.79 1899.52 3146.8"></polygon><path fill="#755d46" d="M2014.13,3125.37a316.06,316.06,0,0,0,98.14,48.52l4.4-15a300.18,300.18,0,0,1-93.26-46.11Z"></path><polygon fill="#755d46" points="2014.13 3125.37 2014.13 3125.37 2014.13 3125.37 2014.13 3125.37"></polygon><path fill="#755d46" d="M2097.56,3089.09a185.65,185.65,0,0,0,51.22,6.25l-.27-15.67a169.82,169.82,0,0,1-46.9-5.72Z"></path><polygon fill="#755d46" points="2097.56 3089.09 2097.56 3089.09 2097.56 3089.09 2097.56 3089.09"></polygon><polygon fill="#755d46" points="2135.74 3141.84 2135.74 3141.84 2135.74 3141.84 2135.74 3141.84"></polygon><path fill="#755d46" d="M2186.71 3132.31l-49.06-6-1.91 15.55 49.06 6zM2018 3056.36a136.8 136.8 0 0131.93 3.78l3.66-15.23a152.4 152.4 0 00-51.78-3.35l1.67 15.58A135.41 135.41 0 012018 3056.36z"></path><polygon fill="#755d46" points="2003.5 3057.14 2003.5 3057.14 2003.5 3057.14 2003.5 3057.14"></polygon><path fill="#755d46" d="M2129.62,3016.54l-32.32-10.75-5,14.86,32.32,10.75Z"></path><polygon fill="#755d46" points="2092.36 3020.65 2092.36 3020.65 2092.35 3020.65 2092.36 3020.65"></polygon><polygon fill="#755d46" points="2093.88 2976.86 2093.88 2976.86 2093.88 2976.86 2093.88 2976.86"></polygon><path fill="#755d46" d="M2096.35,2976.82a71.08,71.08,0,0,1,24.46,4.35l5.41-14.7a86.79,86.79,0,0,0-32.9-5.27l.56,15.66C2094.7,2976.83,2095.53,2976.82,2096.35,2976.82Z"></path><polygon fill="#755d46" points="2220.9 3019.37 2220.9 3019.37 2220.9 3019.37 2220.9 3019.37"></polygon><path fill="#755d46" d="M2274.56 3027.3a250.51 250.51 0 01-45.62-21.38l-8 13.45a266.54 266.54 0 0048.47 22.71zM2164.71 3043.44a115.71 115.71 0 0060.43 18.06l.2-15.67a100 100 0 01-52.2-15.6z"></path><polygon fill="#755d46" points="2164.71 3043.44 2164.71 3043.44 2164.71 3043.44 2164.71 3043.44"></polygon><path fill="#755d46" d="M2335 3042.06a125.73 125.73 0 0197.73 13.16l8.09-13.41A141.21 141.21 0 002330.71 3027l4.26 15.07zM2301.82 3091.75h47.87v-15.67h-47.87z"></path><polygon fill="#755d46" points="2406.93 3082.11 2406.93 3082.11 2406.93 3082.11 2406.93 3082.11"></polygon><path fill="#755d46" d="M2422.21,3084l5.75-14.57a46.77,46.77,0,0,0-23-2.88l2,15.54A31.34,31.34,0,0,1,2422.21,3084Z"></path><polygon fill="#755d46" points="2233.21 3104.91 2233.21 3104.91 2233.21 3104.91 2233.21 3104.91"></polygon><path fill="#755d46" d="M2289,3110.06a151.64,151.64,0,0,1-47.68-18.58l-8.08,13.43a167.41,167.41,0,0,0,52.62,20.5Z"></path><polygon fill="#755d46" points="2251.9 3153.07 2251.9 3153.07 2251.9 3153.07 2251.9 3153.07"></polygon><path fill="#755d46" d="M2309.73 3161.18a166.18 166.18 0 01-49.37-21.29l-8.46 13.18a181.46 181.46 0 0054 23.31zM2209 3202a135.08 135.08 0 01-46.79-8.38l-5.45 14.68a150.59 150.59 0 0059.26 9.21l-.73-15.66C2213.2 3202 2211.11 3202 2209 3202z"></path><polygon fill="#755d46" points="2156.77 3208.32 2156.77 3208.32 2156.77 3208.32 2156.77 3208.32"></polygon><polygon fill="#755d46" points="2265.24 3215.84 2265.24 3215.84 2265.24 3215.84 2265.24 3215.84"></polygon><path fill="#755d46" d="M2265.24 3215.84l52.66 4.79 1.42-15.6-52.66-4.79zM2407.56 3233.75a184.29 184.29 0 0067.59 14.68l.39-15.66a169 169 0 01-61.84-13.44z"></path><polygon fill="#755d46" points="2407.55 3233.75 2407.56 3233.75 2407.55 3233.75 2407.55 3233.75"></polygon><path fill="#755d46" d="M2467.08,3219.87l1.67-12.88-7.48-1,.61-3.13-93.63-18.18-3,15.38Z"></path><polygon fill="#755d46" points="2365.26 3200.1 2365.26 3200.1 2365.26 3200.1 2365.26 3200.1"></polygon><path fill="#755d46" d="M2366.44,3135.92h-15.55v15.66h15.55Z"></path><polygon fill="#755d46" points="2423.64 3164.95 2423.64 3164.94 2423.64 3164.94 2423.64 3164.95"></polygon><path fill="#755d46" d="M2452.75,3154.24l-26.34-4.72-2.77,15.42,26.34,4.72Z"></path><polygon fill="#755d46" points="2459.05 3136.45 2459.05 3136.45 2459.05 3136.45 2459.05 3136.45"></polygon><path fill="#755d46" d="M2459.05,3136.45l29.84,3.11,1.63-15.59-29.85-3.1Z"></path><polygon fill="#755d46" points="2480.14 3086.87 2480.14 3086.87 2480.14 3086.87 2480.14 3086.87"></polygon><path fill="#755d46" d="M2480.13,3086.87l15.56,2.4,2.38-15.49-15.55-2.39Z"></path><polygon fill="#755d46" points="2501.4 3047.42 2501.4 3047.42 2501.4 3047.42 2501.4 3047.42"></polygon><path fill="#755d46" d="M2568.06,3045.35l1.21-15.62a324.35,324.35,0,0,0-70.05,2.17l2.18,15.52A307.7,307.7,0,0,1,2568.06,3045.35Z"></path><polygon fill="#755d46" points="2558.78 3086.82 2558.78 3086.82 2558.78 3086.82 2558.78 3086.82"></polygon><path fill="#755d46" d="M2558.78 3086.82l57.59 9.9 2.65-15.44-57.59-9.9zM2598 3171.56l-1.24-15.62a110.6 110.6 0 01-54.23-9.48l-6.47 14.27A126.26 126.26 0 002598 3171.56z"></path><polygon fill="#755d46" points="2536.06 3160.73 2536.06 3160.73 2536.06 3160.73 2536.06 3160.73"></polygon><path fill="#755d46" d="M2591.1 3194l-8.72 1.74h0c.43 2.13 1.34 6.67 1.77 8.85l60.31 6.72 1.74-15.57-54.62-6.09zM2621.49 3227.23a254.21 254.21 0 01-64.9-2.61l-2.63 15.45a275.69 275.69 0 0075.57 2.17c.22-3.22.6-8.56.82-11.72l-8.62-.6z"></path><polygon fill="#755d46" points="2553.96 3240.07 2553.96 3240.07 2553.96 3240.07 2553.96 3240.07"></polygon><path fill="#755d46" d="M2632.38,3103.76l2.61,15.44a57,57,0,0,1,24.32,1.19l4.11-15.12A72.46,72.46,0,0,0,2632.38,3103.76Z"></path><polygon fill="#755d46" points="2634.99 3119.2 2634.99 3119.2 2634.99 3119.2 2634.99 3119.2"></polygon><path fill="#755d46" d="M2760.68,3201.63l20.06,8.82,6.3-14.35-20.05-8.81Z"></path><polygon fill="#755d46" points="2760.68 3201.63 2760.68 3201.63 2760.68 3201.63 2760.68 3201.63"></polygon><polygon fill="#755d46" points="2731.46 3147.71 2731.46 3147.71 2731.46 3147.71 2731.46 3147.71"></polygon><path fill="#755d46" d="M2783,3131.54l-51.67.51.15,15.66,51.68-.5Z"></path><polygon fill="#755d46" points="2754.05 3076.12 2754.05 3076.12 2754.05 3076.12 2754.05 3076.12"></polygon><path fill="#755d46" d="M2753,3060.49l1.07,15.63a181.08,181.08,0,0,1,41.34,1.93l2.52-15.46A196.5,196.5,0,0,0,2753,3060.49Z"></path><polygon fill="#755d46" points="2873.13 3148.73 2873.13 3148.73 2873.13 3148.73 2873.13 3148.73"></polygon><path fill="#755d46" d="M2894.73,3140.11a20.86,20.86,0,0,1-12.27-4l-9.33,12.59a36.44,36.44,0,0,0,30.37,6l-3.87-15.18A20,20,0,0,1,2894.73,3140.11Z"></path><polygon fill="#755d46" points="2954.38 3102.54 2954.38 3102.54 2954.38 3102.54 2954.38 3102.54"></polygon><path fill="#755d46" d="M2950.38 3087.39l4 15.15a130.48 130.48 0 0172.34 1.83l4.76-14.92A146 146 0 002950.38 3087.39zM2973 3207.34l-1.82-15.56a45.75 45.75 0 01-25.09-4.23l-6.83 14.1A61.3 61.3 0 002973 3207.34z"></path><polygon fill="#755d46" points="2939.26 3201.65 2939.26 3201.65 2939.26 3201.65 2939.26 3201.65"></polygon><path fill="#755d46" d="M2964.22,3150.43a299.71,299.71,0,0,0,65.41,13.72l1.48-15.6a283.61,283.61,0,0,1-62-13Z"></path><polygon fill="#755d46" points="2964.22 3150.43 2964.22 3150.43 2964.22 3150.43 2964.22 3150.43"></polygon><path fill="#755d46" d="M2850.06,3240.66a84.67,84.67,0,0,1,27.18,9.94l7.82-13.58a100.61,100.61,0,0,0-32.21-11.78Z"></path><polygon fill="#755d46" points="2850.06 3240.66 2850.06 3240.66 2850.06 3240.66 2850.06 3240.66"></polygon><path fill="#755d46" d="M2692.45,3232.88l3.42,15.29a78.69,78.69,0,0,1,41.43,2l4.89-14.89A94.24,94.24,0,0,0,2692.45,3232.88Z"></path><polygon fill="#755d46" points="2695.88 3248.17 2695.88 3248.17 2695.88 3248.17 2695.88 3248.17"></polygon><path fill="#755d46" d="M3014.42,3256.31l-43.88,6,2.14,15.52,43.88-6Z"></path><polygon fill="#755d46" points="2972.68 3277.86 2972.68 3277.86 2972.68 3277.86 2972.68 3277.86"></polygon><path fill="#755d46" d="M3082.26,3238A315.73,315.73,0,0,0,3187,3269.92l1.89-15.55a300.35,300.35,0,0,1-99.54-30.29Z"></path><polygon fill="#755d46" points="3082.26 3238.05 3082.26 3238.05 3082.26 3238.05 3082.26 3238.05"></polygon><polygon fill="#755d46" points="3158.66 3188.66 3158.66 3188.66 3158.66 3188.66 3158.66 3188.66"></polygon><path fill="#755d46" d="M3160.18 3173.06l-1.52 15.6a186.07 186.07 0 0051.56-2.19l-2.83-15.41A169.82 169.82 0 013160.18 3173.06zM3253.66 3216.77l-49.39 2.06.66 15.65 49.38-2.06z"></path><polygon fill="#755d46" points="3204.93 3234.48 3204.93 3234.48 3204.93 3234.48 3204.93 3234.48"></polygon><polygon fill="#755d46" points="3060.65 3172.46 3060.65 3172.46 3060.65 3172.46 3060.65 3172.46"></polygon><path fill="#755d46" d="M3097.16 3167.5q4.92 0 9.8.35l1.14-15.62a152.53 152.53 0 00-51.64 5.13l4.19 15.1A136.85 136.85 0 013097.16 3167.5zM3142.37 3122l33.64 5.34 2.45-15.48-33.64-5.33z"></path><polygon fill="#755d46" points="3142.37 3121.98 3142.37 3121.98 3142.37 3121.98 3142.37 3121.98"></polygon><polygon fill="#755d46" points="3136.73 3078.53 3136.73 3078.53 3136.73 3078.53 3136.73 3078.53"></polygon><path fill="#755d46" d="M3150.72 3077.14a70.47 70.47 0 0113.29 1.25L3167 3063a86.67 86.67 0 00-33.32.17l3.1 15.36A70.61 70.61 0 013150.72 3077.14zM3323.22 3098.84a251.16 251.16 0 01-48.5-13.65l-5.74 14.57a266.32 266.32 0 0051.53 14.51z"></path><polygon fill="#755d46" points="3268.98 3099.76 3268.98 3099.76 3268.98 3099.76 3268.98 3099.76"></polygon><polygon fill="#755d46" points="3217.47 3132.67 3217.47 3132.67 3217.47 3132.67 3217.47 3132.67"></polygon><path fill="#755d46" d="M3280 3140.63l-2.36-15.48a100.13 100.13 0 01-54-6.88l-6.16 14.4A115.61 115.61 0 003280 3140.63zM3438 3076.29a140.09 140.09 0 00-59.45 13.09l6.66 14.18a125.64 125.64 0 0198.56-2.94l5.81-14.55A139.33 139.33 0 003438 3076.29z"></path><polygon fill="#755d46" points="3385.23 3103.56 3385.23 3103.56 3385.23 3103.56 3385.23 3103.56"></polygon><path fill="#755d46" d="M3358.07,3142.53l2.55,15.46,47.23-7.81-2.55-15.45Z"></path><polygon fill="#755d46" points="3360.62 3157.99 3360.62 3157.99 3360.62 3157.99 3360.62 3157.99"></polygon><path fill="#755d46" d="M3458.26,3116.34l4.49,15a31.22,31.22,0,0,1,15.39-.61l3.3-15.31A46.69,46.69,0,0,0,3458.26,3116.34Z"></path><polygon fill="#755d46" points="3462.75 3131.35 3462.75 3131.35 3462.75 3131.35 3462.75 3131.35"></polygon><path fill="#755d46" d="M3295.08,3182.15a167,167,0,0,0,55.25,11.65l.59-15.65a151.69,151.69,0,0,1-50.06-10.56Z"></path><polygon fill="#755d46" points="3295.08 3182.15 3295.08 3182.15 3295.07 3182.15 3295.08 3182.15"></polygon><path fill="#755d46" d="M3379.74,3225.2a166,166,0,0,1-52.18-13l-6.19,14.39a181.82,181.82,0,0,0,57.11,14.19Z"></path><polygon fill="#755d46" points="3321.37 3226.63 3321.37 3226.63 3321.37 3226.63 3321.37 3226.63"></polygon><polygon fill="#755d46" points="3236.51 3296.64 3236.51 3296.63 3236.51 3296.63 3236.51 3296.64"></polygon><path fill="#755d46" d="M3265.07 3283.7a134.52 134.52 0 01-25.57-2.45l-3 15.38a150.25 150.25 0 0060-.58l-3.28-15.32A134.25 134.25 0 013265.07 3283.7zM3396.35 3266.9l-52.74 3.86 1.15 15.62 52.73-3.86z"></path><polygon fill="#755d46" points="3344.76 3286.38 3344.76 3286.38 3344.76 3286.38 3344.76 3286.38"></polygon><polygon fill="#755d46" points="3488.09 3280.85 3488.09 3280.85 3488.09 3280.85 3488.09 3280.85"></polygon><path fill="#755d46" d="M3531.74 3270.42a169 169 0 01-39.94-4.79l-3.71 15.22a184.49 184.49 0 0069.08 3.47l-2.17-15.51A169.08 169.08 0 013531.74 3270.42zM3151.26 3276l-7.53.26.09-3.18-95.35-2.68-.43 15.67 103.68 2.9C3151.6 3285.77 3151.37 3279.08 3151.26 3276z"></path><polygon fill="#755d46" points="3048.03 3286.05 3048.03 3286.05 3048.03 3286.05 3048.03 3286.05"></polygon><polygon fill="#755d46" points="3418.78 3209.02 3418.78 3209.02 3418.78 3209.02 3418.78 3209.02"></polygon><path fill="#755d46" d="M3431.58,3191l-15.35,2.54,2.56,15.45,15.34-2.53Z"></path><polygon fill="#755d46" points="3492.74 3210.35 3492.74 3210.35 3492.74 3210.35 3492.74 3210.35"></polygon><path fill="#755d46" d="M3519.71 3195l-26.75-.36-.22 15.67 26.76.36zM3553 3174.66l-.93-15.63-30 1.79.93 15.64z"></path><polygon fill="#755d46" points="3523.03 3176.46 3523.03 3176.46 3523.03 3176.46 3523.03 3176.46"></polygon><polygon fill="#755d46" points="3535.76 3124.11 3535.76 3124.11 3535.76 3124.11 3535.76 3124.11"></polygon><path fill="#755d46" d="M3551.49 3123.94l-.17-15.67-15.74.17.18 15.67zM3615.73 3068.81l-1.35-15.61a324.08 324.08 0 00-68.75 13.57l4.67 14.95A308.58 308.58 0 013615.73 3068.81z"></path><polygon fill="#755d46" points="3550.3 3081.72 3550.3 3081.72 3550.3 3081.72 3550.3 3081.72"></polygon><polygon fill="#755d46" points="3613.34 3111.24 3613.34 3111.24 3613.34 3111.24 3613.34 3111.24"></polygon><path fill="#755d46" d="M3671.88,3096l-58.44-.38-.1,15.67,58.43.38Z"></path><polygon fill="#755d46" points="3602.97 3187.87 3602.97 3187.87 3602.97 3187.87 3602.97 3187.87"></polygon><path fill="#755d46" d="M3607 3172.74l-4.06 15.13a126.33 126.33 0 0062.88.59l-3.78-15.21A110.68 110.68 0 013607 3172.74zM3631.08 3225.82l-54.88 2.89.23 4.37-8.31 3.14h0c.77 2 2.41 6.36 3.19 8.44l60.6-3.2z"></path><polygon fill="#755d46" points="3603.29 3276.67 3603.29 3276.67 3603.29 3276.67 3603.29 3276.67"></polygon><path fill="#755d46" d="M3677.09 3254.8l-8.6.81-.67-2.61a253.85 253.85 0 01-64.46 8l-.07 15.67a275 275 0 0074.91-10.17C3677.89 3263.29 3677.39 3258 3677.09 3254.8zM3755.89 3038.86l-3.93-15.17a324.11 324.11 0 00-65.54 24.83l7.11 14h0A308.8 308.8 0 013755.89 3038.86zM3818.28 3071.74l-2.51-15.46-57.68 9.35 2.51 15.47z"></path><polygon fill="#755d46" points="3760.6 3081.1 3760.6 3081.1 3760.6 3081.1 3760.6 3081.1"></polygon><polygon fill="#755d46" points="3763.13 3158.38 3763.13 3158.38 3763.13 3158.38 3763.13 3158.38"></polygon><path fill="#755d46" d="M3764.62 3142.78l-1.49 15.6a126.23 126.23 0 0062.1-9.89l-6.26-14.36A110.55 110.55 0 013764.62 3142.78zM3797.17 3191.12l-53.63 12 .95 4.27-7.68 4.47 4.55 7.8 59.22-13.24zM3736.81 3211.85zM3847.36 3212l-8.35 2.23-1.1-2.46a254.13 254.13 0 01-62.22 18.62l2.53 15.46a275.12 275.12 0 0072.18-22.5C3849.56 3220.27 3848.18 3215.1 3847.36 3212z"></path><polygon fill="#755d46" points="3778.22 3245.89 3778.22 3245.89 3778.22 3245.89 3778.22 3245.89"></polygon><path fill="#755d46" d="M3835.71,3073.2l7.49,13.76h0a56.83,56.83,0,0,1,23.38-6.78l-1-15.64A72.55,72.55,0,0,0,3835.71,3073.2Z"></path><polygon fill="#755d46" points="3988.85 3124.07 3988.85 3124.07 3988.85 3124.07 3988.85 3124.07"></polygon><path fill="#755d46" d="M3988.85,3124.07l21.83,1.82,1.3-15.62-21.83-1.82Z"></path><polygon fill="#755d46" points="3943.7 3082.57 3943.69 3082.57 3943.69 3082.57 3943.7 3082.57"></polygon><path fill="#755d46" d="M3943.69,3082.57l48.71-17.27-5.23-14.76-48.71,17.26Z"></path><polygon fill="#755d46" points="3941.79 3007.53 3941.79 3007.53 3941.79 3007.53 3941.79 3007.53"></polygon><path fill="#755d46" d="M3981.52 2995.92l-2.65-15.45a196.6 196.6 0 00-43.16 12.62l6.08 14.43A180.86 180.86 0 013981.52 2995.92zM4108.67 3033.26l-8.6-13.09a20.88 20.88 0 01-17.34 2.39l-4.73 14.93A36.42 36.42 0 004108.67 3033.26z"></path><polygon fill="#755d46" points="4078 3037.49 4078 3037.49 4078 3037.49 4078 3037.49"></polygon><path fill="#755d46" d="M4139.83 2967.41a130.43 130.43 0 0169-21.77l-.35-15.66a146.07 146.07 0 00-77.36 24.4l8.7 13zM4165 3050.82a43.45 43.45 0 01-5.36-.32l-1.87 15.56a61.43 61.43 0 0033.76-5.59l-6.79-14.12A45.75 45.75 0 014165 3050.82z"></path><polygon fill="#755d46" points="4157.75 3066.06 4157.75 3066.06 4157.75 3066.06 4157.75 3066.06"></polygon><polygon fill="#755d46" points="4164.71 3009.51 4164.71 3009.51 4164.71 3009.51 4164.71 3009.51"></polygon><path fill="#755d46" d="M4164.71 3009.51a299.49 299.49 0 0066.32-8.29l-3.67-15.23a283.77 283.77 0 01-62.84 7.85zM4083.69 3116.44l2.37 15.49a85 85 0 0128.94.57l3-15.38A100.49 100.49 0 004083.69 3116.44z"></path><polygon fill="#755d46" points="4086.06 3131.93 4086.06 3131.93 4086.06 3131.93 4086.06 3131.93"></polygon><path fill="#755d46" d="M4011.13 3175.68a94.39 94.39 0 00-47.82 13.89l8.21 13.35h0a78.63 78.63 0 0139.83-11.57zM4246.59 3093.32l-39.54 20 7.06 14h0l39.54-20z"></path><polygon fill="#755d46" points="4327.78 3061.59 4327.78 3061.59 4327.78 3061.59 4327.78 3061.59"></polygon><path fill="#755d46" d="M4371.4,3049a299.29,299.29,0,0,1-41.45-2.88l-2.17,15.52a316,316,0,0,0,109.41-3.89l-3.26-15.33A300,300,0,0,1,4371.4,3049Z"></path><polygon fill="#755d46" points="4361.02 2982.47 4361.02 2982.47 4361.01 2982.47 4361.02 2982.47"></polygon><path fill="#755d46" d="M4401.38 2950a170.23 170.23 0 01-44 17.23l3.62 15.24a185.39 185.39 0 0048.06-18.82zM4414 2996.18l5.7 14.6 46-18-5.71-14.59z"></path><polygon fill="#755d46" points="4419.66 3010.78 4419.66 3010.78 4419.66 3010.78 4419.66 3010.78"></polygon><path fill="#755d46" d="M4254.2,2986.09l8.86,12.92h0a136.64,136.64,0,0,1,42.31-19.41l-4-15.15A152.37,152.37,0,0,0,4254.2,2986.09Z"></path><polygon fill="#755d46" points="4323.94 2924.71 4323.94 2924.71 4323.94 2924.71 4323.94 2924.71"></polygon><path fill="#755d46" d="M4323.94 2924.71l33.55-5.88-2.71-15.43-33.54 5.88zM4304.49 2885.45a71.18 71.18 0 0125.75-9l-2.22-15.51a86.82 86.82 0 00-31.45 11l7.92 13.52z"></path><polygon fill="#755d46" points="4436.47 2862.55 4436.47 2862.55 4436.47 2862.55 4436.47 2862.55"></polygon><path fill="#755d46" d="M4489.91 2859.53l-2.46-15.47a250.45 250.45 0 01-50.29 2.84l-.7 15.65A266.37 266.37 0 004489.91 2859.53zM4460.2 2897.62l-7.26-13.89a100 100 0 01-53.35 11.06l-1.15 15.62A115.72 115.72 0 004460.2 2897.62z"></path><polygon fill="#755d46" points="4398.44 2910.41 4398.44 2910.41 4398.44 2910.41 4398.44 2910.41"></polygon><path fill="#755d46" d="M4639.89 2793.56l.77-15.65a141.21 141.21 0 00-103.93 39.21l10.91 11.25h0A125.59 125.59 0 014639.89 2793.56zM4576.74 2851.32l-42.13 22.73 7.44 13.79h0l42.13-22.73zM4630 2829.46h0a31.18 31.18 0 0114.36-5.58l-1.87-15.55a46.73 46.73 0 00-21.61 8.39z"></path><polygon fill="#755d46" points="4487.91 2931.99 4487.91 2931.99 4487.91 2931.99 4487.91 2931.99"></polygon><path fill="#755d46" d="M4544,2925.05l-4.53-15a151.71,151.71,0,0,1-50.78,6.28l-.74,15.65A167.14,167.14,0,0,0,4544,2925.05Z"></path><polygon fill="#755d46" points="4527.23 2965.51 4527.23 2965.51 4527.23 2965.51 4527.23 2965.51"></polygon><path fill="#755d46" d="M4540.88,2950.36q-6.24,0-12.47-.47l-1.18,15.62a181.42,181.42,0,0,0,58.62-5.14L4582,2945.2A166.44,166.44,0,0,1,4540.88,2950.36Z"></path><polygon fill="#755d46" points="4496.52 3020.73 4496.52 3020.73 4496.52 3020.73 4496.52 3020.73"></polygon><path fill="#755d46" d="M4545,2987.27a134.74,134.74,0,0,1-50.62,17.95l2.18,15.51a150.37,150.37,0,0,0,56.52-20Z"></path><polygon fill="#755d46" points="4604.19 2955.4 4604.19 2955.4 4604.19 2955.4 4604.19 2955.4"></polygon><path fill="#755d46" d="M4646.65 2920.21L4598 2941l6.16 14.4 48.61-20.78zM4619.89 2896l-13.69 7.39 7.44 13.79h0l13.69-7.39z"></path><polygon fill="#755d46" points="4316.24 3108.34 4316.24 3108.34 4316.24 3108.34 4316.24 3108.34"></polygon><path fill="#755d46" d="M4347.77 3085.82l-34.71 7.18 3.18 15.34 34.7-7.18zM4280.14 3127.68l-20.34 14.37 9 12.79h0l20.34-14.36z"></path><polygon fill="#755d46" points="4139.17 3179.78 4139.17 3179.78 4139.17 3179.78 4139.17 3179.78"></polygon><path fill="#755d46" d="M4156.45,3171.61a7.81,7.81,0,0,1-5.67-2.35l-11.61,10.52a23.45,23.45,0,0,0,26.6,5.52l-6.46-14.27A7,7,0,0,1,4156.45,3171.61Z"></path><polygon fill="#755d46" points="4061.21 3220.78 4061.21 3220.78 4061.21 3220.78 4061.21 3220.78"></polygon><path fill="#755d46" d="M4075.09,3206a97.74,97.74,0,0,1-12-.73l-1.91,15.55a114.44,114.44,0,0,0,45-3.47l-4.28-15.08A98.29,98.29,0,0,1,4075.09,3206Z"></path><polygon fill="#755d46" points="3921.94 3133.21 3921.94 3133.21 3921.95 3133.21 3921.94 3133.21"></polygon><path fill="#755d46" d="M3915.64,3148.48a36.6,36.6,0,0,1,28,13.36l12.15-9.89c-16.72-21.24-49.75-25.39-71.21-8.91l9.34,12.58h0A36.85,36.85,0,0,1,3915.64,3148.48Z"></path><polygon fill="#755d46" points="3913.53 3238.65 3913.53 3238.65 3913.53 3238.65 3913.53 3238.65"></polygon><path fill="#755d46" d="M3925.41 3224.09a48.84 48.84 0 01-9-.83l-2.91 15.39a65.26 65.26 0 0045-7.87l-8-13.49A49.62 49.62 0 013925.41 3224.09zM2877.81 3269.22a131.32 131.32 0 01-39-5.93l-4.67 14.95a146.82 146.82 0 0062.65 5.42l-2-15.54A130.84 130.84 0 012877.81 3269.22z"></path><polygon fill="#755d46" points="2834.11 3278.24 2834.11 3278.24 2834.11 3278.24 2834.11 3278.24"></polygon><polygon fill="#755d46" points="2002.63 3164.61 2002.63 3164.61 2002.63 3164.61 2002.63 3164.61"></polygon><path fill="#755d46" d="M2002.63,3164.61l36.13,15.66,6.23-14.37-36.13-15.67Z"></path><polygon fill="#755d46" points="1775.64 3136.74 1775.64 3136.74 1775.64 3136.74 1775.64 3136.74"></polygon><path fill="#755d46" d="M1832.51 3131a152.5 152.5 0 01-51.55-9l-5.32 14.73a167.86 167.86 0 0062.52 9.84l-.52-15.65C1835.93 3131 1834.22 3131 1832.51 3131zM1822.43 2947.91l-23.94-1.51-1 15.63 23.94 1.52z"></path><polygon fill="#755d46" points="1797.5 2962.03 1797.5 2962.03 1797.5 2962.03 1797.5 2962.03"></polygon><path fill="#755d46" d="M2857.22,3090.6a22.55,22.55,0,0,0,18.53.14l-6.49-14.26a7.06,7.06,0,0,1-7.84-1.84l-12.17,9.87A21.86,21.86,0,0,0,2857.22,3090.6Z"></path><polygon fill="#755d46" points="2849.25 3084.51 2849.25 3084.51 2849.25 3084.51 2849.25 3084.51"></polygon><polygon fill="#755d46" points="4664.91 2780.69 4664.91 2780.69 4664.91 2780.69 4664.91 2780.69"></polygon><path fill="#755d46" d="M4699.61,2777.07l-1.63-15.58-34.7,3.62,1.63,15.58Z"></path><polygon fill="#755d46" points="4660.36 2877.12 4660.36 2877.12 4660.36 2877.12 4660.36 2877.12"></polygon><path fill="#755d46" d="M4681,2849.53l-27.53,13.53,6.91,14.06,27.53-13.53Z"></path><path fill="#8de30c" d="M2751.21,2103.22l-655.73,826.05c138.44,21.48,289.47,38.09,449.55,48.92l377.76-878.71Q2835.84,2100.26,2751.21,2103.22Z"></path><path fill="#72b80a" d="M2984.12 2099.2q-30.79 0-61.33.28L2545 2978.19c140.21 9.49 287.37 14.54 439.09 14.54q68.58 0 135.87-1.36V2100.56Q3052.75 2099.21 2984.12 2099.2zM2596 2110.5l-920.76 727.36c120.07 35.92 261.91 66.85 420.22 91.41l655.73-826.05Q2672.45 2106 2596 2110.5zM1255.25 2546c0 43.45 24 85.45 68.76 125.16l1003.18-538.53C1698.16 2199.41 1255.25 2359.32 1255.25 2546z"></path><path fill="#8de30c" d="M2327.19 2132.59L1324 2671.12c70.19 62.28 191.44 118.94 351.25 166.74L2596 2110.5C2503.35 2116 2413.52 2123.41 2327.19 2132.59zM4695.71 2609.34l-903.9-458.49c-97.76-13.37-201.08-24.39-308.83-32.77l766.37 732.35C4484.4 2785.24 4644.88 2701.85 4695.71 2609.34z"></path><path fill="#72b80a" d="M4713 2546c0-171.34-373.29-320.16-921.18-395.11l903.9 458.49C4707.09 2588.64 4713 2567.48 4713 2546zM3307 2107l312.9 854.56c241.11-24.65 455.64-62.91 629.42-111.11L3483 2118.08Q3396.81 2111.39 3307 2107z"></path><path fill="#8de30c" d="M3120,2100.56v890.81c175.28-3.52,343.23-13.8,499.94-29.83L3307,2107Q3215.13,2102.5,3120,2100.56Z"></path><path fill="#fff" d="M4276.23 2138.15h0c-10.9 0-19.73 15-19.73 33.58V2401.5a81.63 81.63 0 0015 5c9 1.7 16.93 1.1 24.45-1.77v-233C4296 2153.18 4287.12 2138.15 4276.23 2138.15zM3831.78 2042.37c-12.53 13.63-18.75 23.48-18.89 23.71a5.62 5.62 0 009.5 6h0c.07-.1 5.91-9.32 17.66-22.09a5.62 5.62 0 10-8.27-7.6zM3938 1973.31a247.32 247.32 0 00-57.51 27.8 5.62 5.62 0 106.15 9.4h0a236.11 236.11 0 0154.89-26.54 5.61 5.61 0 00-3.53-10.66zM4232.72 2048.18a5.62 5.62 0 10-8.29 7.58 197.84 197.84 0 0133.6 50.46 5.62 5.62 0 1010.19-4.72A209.2 209.2 0 004232.72 2048.18zM4183.36 2007.57a296.07 296.07 0 00-57.52-27.25 5.61 5.61 0 10-3.75 10.58h0a285.09 285.09 0 0155.35 26.22 5.62 5.62 0 105.92-9.55zM4064.33 1964.48a293 293 0 00-46.53-3.8q-8.75 0-17.1.54a5.62 5.62 0 10.71 11.21h0q8-.51 16.39-.52a282.77 282.77 0 0144.75 3.66 5.62 5.62 0 001.78-11.09z"></path><path fill="#fff" d="M4286.11,2163.16a5.61,5.61,0,1,0-11.13,1.47h0a172.14,172.14,0,0,1,1.56,22.37c0,1.9,0,3.36-.08,4.33,0,.48,0,.84-.05,1.08s0,.19,0,.25v.05h0a5.61,5.61,0,1,0,11.19.89c0-.13.2-2.47.2-6.6A184.28,184.28,0,0,0,4286.11,2163.16Z"></path><polygon fill="none" points="4078.46 1786.69 4078.46 1786.69 4078.46 1786.69 4078.46 1786.69"></polygon><path fill="#fff" d="M4109.43 1788c-16.78-9.16-27.77-12-28.14-12.15a5.62 5.62 0 00-2.84 10.87h0l.11 0c1.12.31 10.87 3.13 25.49 11.11a5.62 5.62 0 005.38-9.86zm-31-1.28zM4278.28 2080.44q-4.95-30.21-11.69-56.61a5.62 5.62 0 00-10.89 2.75h0q6.57 26 11.5 55.67a5.61 5.61 0 1011.08-1.81zM4156.84 1822.38a5.62 5.62 0 00-7.6 8.27h0a293.11 293.11 0 0137.39 41.93 5.62 5.62 0 109-6.67A304.7 304.7 0 004156.84 1822.38zM4226.3 1915.35a5.62 5.62 0 00-10 5.18 443.73 443.73 0 0122.72 51.82 5.61 5.61 0 1010.54-3.86A455.51 455.51 0 004226.3 1915.35zM4287.77 2167.23q-.92-15.09-2.23-29.43a5.61 5.61 0 10-11.18 1h0q1.29 14.16 2.19 29.08a5.62 5.62 0 1011.22-.68zM4311.41 1768.2a5.61 5.61 0 00-7 3.78h0c0 .1-3.13 10.54-7.25 28.81a5.61 5.61 0 1010.95 2.47c2-9 3.81-16 5.07-20.82.63-2.4 1.14-4.22 1.48-5.45.17-.61.3-1.07.39-1.37 0-.15.08-.27.1-.34l0-.08v0A5.62 5.62 0 004311.41 1768.2zM4293.29 1850.3a5.62 5.62 0 00-6.42 4.68h0c-2.57 16.45-5 34.84-6.82 54.71a5.62 5.62 0 0011.19 1c1.82-19.61 4.19-37.78 6.73-54A5.61 5.61 0 004293.29 1850.3zM4282.52 1959.29a5.62 5.62 0 00-5.76 5.47h0q-.27 10-.27 20.35 0 4.58.06 9.2a5.62 5.62 0 0011.23-.14q-.06-4.55-.06-9.06 0-10.15.26-20.06A5.6 5.6 0 004282.52 1959.29zM3903.52 2127.21a223.68 223.68 0 00-22 20.64 5.61 5.61 0 108.39 7.46h0a218.37 218.37 0 0120.79-19.49 5.62 5.62 0 00-7.22-8.61zM4011.2 2068.39a289.74 289.74 0 00-56.85 24 5.62 5.62 0 105.42 9.84h0a279 279 0 0154.64-23.07 5.61 5.61 0 10-3.21-10.76zM4133.77 2062.25a256.3 256.3 0 00-49-4.75q-6.43 0-12.72.32a5.62 5.62 0 00.57 11.22h0q6-.32 12.15-.31a245.17 245.17 0 0146.81 4.55 5.62 5.62 0 002.14-11zM4219.53 2093.69q-13.59-7.35-26.83-13a5.62 5.62 0 10-4.45 10.32h0q12.78 5.51 25.93 12.6a5.62 5.62 0 005.35-9.88zM4749.11 2066.08h0c-.15-.23-6.37-10.08-18.9-23.71a5.62 5.62 0 10-8.27 7.6 207.33 207.33 0 0113.37 16c1.47 2 2.56 3.51 3.28 4.56l.79 1.17.18.29 0 .06h0a5.62 5.62 0 009.5-6zM4681.5 2001.11h0a247.43 247.43 0 00-57.5-27.8 5.62 5.62 0 00-3.54 10.66 236.19 236.19 0 0154.9 26.54 5.61 5.61 0 006.14-9.4zM4329.27 2048.18a209.2 209.2 0 00-35.5 53.32 5.62 5.62 0 1010.19 4.72 197.63 197.63 0 0133.61-50.46 5.62 5.62 0 10-8.3-7.58zM4436.15 1980.32h0a296.07 296.07 0 00-57.52 27.25 5.62 5.62 0 005.92 9.55 285.09 285.09 0 0155.35-26.22 5.61 5.61 0 10-3.75-10.58zM4561.3 1961.22q-8.37-.54-17.1-.54a292.85 292.85 0 00-46.53 3.8 5.62 5.62 0 101.78 11.09 282.59 282.59 0 0144.75-3.66q8.37 0 16.38.52a5.62 5.62 0 00.72-11.21z"></path><path fill="#fff" d="M4282.18 2158.33a5.61 5.61 0 00-6.3 4.83h0a183.89 183.89 0 00-1.66 23.84c0 4.13.18 6.47.19 6.6a5.62 5.62 0 0011.2-.9h0c0-.12-.16-2.14-.16-5.7a174 174 0 011.56-22.37A5.6 5.6 0 004282.18 2158.33zM4487.56 1779.84a5.62 5.62 0 00-6.85-4h0c-.38.1-11.37 3-28.15 12.15a5.62 5.62 0 105.39 9.86 160 160 0 0118.87-8.85c2.23-.86 4-1.44 5.1-1.81.57-.18 1-.31 1.27-.38l.29-.09h.06A5.62 5.62 0 004487.56 1779.84zM4343.27 1913a5.62 5.62 0 00-7.58 2.39 455.51 455.51 0 00-23.29 53.14 5.61 5.61 0 1010.54 3.86 443.73 443.73 0 0122.72-51.82A5.61 5.61 0 004343.27 1913zM4302.23 2019.76a5.62 5.62 0 00-6.83 4.07h0c-4.45 17.63-8.39 36.47-11.69 56.61a5.62 5.62 0 0011.09 1.81c3.25-19.83 7.12-38.36 11.49-55.67A5.62 5.62 0 004302.23 2019.76zM4405.15 1822.38h0a304.68 304.68 0 00-38.82 43.53 5.61 5.61 0 109 6.67 293.71 293.71 0 0137.39-41.93 5.62 5.62 0 10-7.6-8.27z"></path><path fill="#fff" d="M4282.56 2132.72a5.62 5.62 0 00-6.11 5.08h0q-1.32 14.34-2.22 29.43a5.62 5.62 0 1011.21.67q.89-14.91 2.2-29.07A5.63 5.63 0 004282.56 2132.72zM4680.44 2147.85h0a226.16 226.16 0 00-22-20.64 5.62 5.62 0 10-7.21 8.61c6.81 5.71 12 10.63 15.56 14.09 1.75 1.73 3.08 3.1 4 4 .44.46.77.82 1 1l.23.25.05.06h0a5.62 5.62 0 008.4-7.46zM4607.65 2092.38h0a289.84 289.84 0 00-56.86-24 5.61 5.61 0 00-3.21 10.76 279.06 279.06 0 0154.65 23.07 5.62 5.62 0 005.42-9.84zM4489.89 2057.82h0q-6.27-.32-12.71-.32a256.48 256.48 0 00-49 4.75 5.62 5.62 0 102.15 11 245.09 245.09 0 0146.81-4.55q6.15 0 12.14.31a5.62 5.62 0 10.57-11.22zM4369.3 2080.65h0q-13.24 5.71-26.83 13a5.62 5.62 0 105.35 9.88q13.14-7.12 25.92-12.6a5.62 5.62 0 00-4.44-10.32zM4650.87 1844.74h0c-.15 0-8.77-.84-23-.84q-3.3 0-7 .07a5.62 5.62 0 00.21 11.23c2.38 0 4.65-.06 6.78-.06 6.88 0 12.39.2 16.16.39 1.88.1 3.33.2 4.3.27l1.09.09.27 0h.07a5.62 5.62 0 001.07-11.18zM4560 1849.9h0a315.53 315.53 0 00-59.14 16.42 5.62 5.62 0 004.09 10.46 305 305 0 0157-15.83 5.61 5.61 0 10-2-11zM4446.67 1895.8h0a199.18 199.18 0 00-22.88 19.64 5.61 5.61 0 007.94 7.94 187.8 187.8 0 0121.6-18.54 5.61 5.61 0 10-6.66-9zM3287.29 1944.92h0c-9.06 0-16.4 12.5-16.4 27.93v191.09a68 68 0 0012.48 4.12 36.37 36.37 0 0020.33-1.47V1972.85C3303.7 1957.42 3296.35 1944.92 3287.29 1944.92zM2917.67 1865.26A153.44 153.44 0 002902 1885a4.67 4.67 0 107.9 5h0a143.55 143.55 0 0114.69-18.38 4.67 4.67 0 00-6.88-6.32zM3111.07 1800.49a243.76 243.76 0 00-38.7-3.17q-7.27 0-14.22.46a4.67 4.67 0 10.59 9.32q6.66-.43 13.63-.43a234.44 234.44 0 0137.21 3 4.67 4.67 0 101.49-9.22zM3006 1807.83a205.53 205.53 0 00-47.82 23.12 4.67 4.67 0 005.11 7.82h0a196.4 196.4 0 0145.65-22.07 4.67 4.67 0 10-2.94-8.87zM3251.11 1870.1a4.67 4.67 0 00-6.9 6.3h0a164.33 164.33 0 0127.95 42 4.67 4.67 0 108.47-3.93A173.69 173.69 0 003251.11 1870.1zM3210.06 1836.32a246.58 246.58 0 00-47.84-22.66 4.67 4.67 0 00-3.12 8.8 238 238 0 0146 21.8 4.67 4.67 0 104.92-7.94z"></path><path fill="#fff" d="M3295.51,1965.72a4.67,4.67,0,0,0-9.26,1.22h0a143.75,143.75,0,0,1,1.3,18.61c0,1.58,0,2.79-.07,3.6,0,.4,0,.7,0,.89a2,2,0,0,0,0,.21v0h0a4.67,4.67,0,0,0,9.31.75c0-.11.16-2.06.16-5.49A153.14,153.14,0,0,0,3295.51,1965.72Z"></path><polygon fill="none" points="3122.82 1652.63 3122.82 1652.63 3122.82 1652.63 3122.82 1652.63"></polygon><path fill="#fff" d="M3148.57 1653.7c-14-7.62-23.09-10-23.4-10.11a4.67 4.67 0 00-2.36 9h0l.09 0c.93.26 9 2.61 21.2 9.25a4.67 4.67 0 104.47-8.2zm-25.75-1.07zM3188 1682.31a4.67 4.67 0 00-6.33 6.88h0a243.42 243.42 0 0131.1 34.87 4.67 4.67 0 107.51-5.54A253 253 0 003188 1682.31zM3289 1896.92c-2.74-16.74-6-32.41-9.72-47.07a4.67 4.67 0 00-9.06 2.29c3.64 14.39 6.86 29.8 9.56 46.29a4.67 4.67 0 109.22-1.51zM3245.77 1759.63a4.67 4.67 0 00-8.29 4.31 370.05 370.05 0 0118.89 43.1 4.67 4.67 0 008.77-3.22A378.61 378.61 0 003245.77 1759.63zM3295 1944.63a4.67 4.67 0 10-9.3.86h0q1.08 11.77 1.82 24.18a4.67 4.67 0 009.33-.56Q3296.14 1956.56 3295 1944.63zM3316.55 1637.25a4.67 4.67 0 00-5.81 3.14h0c0 .09-2.6 8.77-6 24a4.67 4.67 0 009.11 2.06c1.69-7.48 3.16-13.34 4.21-17.32.53-2 .95-3.51 1.23-4.52.14-.51.25-.9.33-1.15s.06-.22.08-.28l0-.07h0A4.66 4.66 0 003316.55 1637.25zM3301.48 1705.52a4.67 4.67 0 00-5.33 3.9h0c-2.14 13.68-4.13 29-5.67 45.5a4.67 4.67 0 009.3.86c1.52-16.31 3.49-31.41 5.6-44.92A4.67 4.67 0 003301.48 1705.52zM3292.52 1796.17a4.67 4.67 0 00-4.79 4.55h0q-.21 8.34-.22 16.93 0 3.8 0 7.65a4.68 4.68 0 009.35-.12c0-2.52-.05-5-.05-7.53q0-8.45.22-16.69A4.67 4.67 0 003292.52 1796.17zM2977.33 1935.82a187.74 187.74 0 00-18.27 17.17 4.67 4.67 0 007 6.2h0a183.57 183.57 0 0117.29-16.21 4.67 4.67 0 10-6-7.16zM3168.81 1881.8a212.89 212.89 0 00-40.71-4c-3.57 0-7.09.09-10.58.27a4.67 4.67 0 10.47 9.32h0c3.33-.16 6.7-.25 10.11-.25A203.71 203.71 0 013167 1891a4.67 4.67 0 101.79-9.17zM3066.87 1886.91a240.64 240.64 0 00-47.27 19.95 4.67 4.67 0 104.51 8.18h0a231.93 231.93 0 0145.45-19.18 4.67 4.67 0 10-2.68-8.95zM3240.13 1908q-11.28-6.12-22.31-10.85a4.67 4.67 0 00-3.7 8.58h0q10.64 4.58 21.57 10.48a4.67 4.67 0 104.44-8.21zM3680.56 1885h0a152.7 152.7 0 00-15.71-19.72 4.67 4.67 0 10-6.88 6.32c5 5.41 8.67 10.05 11.12 13.32 1.22 1.63 2.13 2.92 2.72 3.79.3.43.52.76.66 1l.15.23 0 .06h0a4.67 4.67 0 107.9-5zM3420.29 1813.66h0a246.86 246.86 0 00-47.84 22.66 4.67 4.67 0 004.93 7.94 237.85 237.85 0 0146-21.8 4.67 4.67 0 00-3.12-8.8zM3524.37 1797.78h0q-7-.45-14.22-.46a243.57 243.57 0 00-38.7 3.17 4.67 4.67 0 001.48 9.22 234.47 234.47 0 0137.22-3q7 0 13.62.43a4.67 4.67 0 10.6-9.32zM3331.41 1870.1h0a173.74 173.74 0 00-29.53 44.34 4.67 4.67 0 008.48 3.93 164.54 164.54 0 0127.94-42 4.67 4.67 0 10-6.89-6.3zM3624.33 1831h0a205.53 205.53 0 00-47.82-23.12 4.67 4.67 0 00-2.94 8.87 196.48 196.48 0 0145.66 22.07 4.67 4.67 0 005.1-7.82z"></path><path fill="#fff" d="M3292.24 1961.7a4.67 4.67 0 00-5.24 4h0a153.14 153.14 0 00-1.38 19.83c0 3.43.15 5.38.16 5.49a4.67 4.67 0 009.31-.75h0c0-.1-.13-1.78-.13-4.74a143.75 143.75 0 011.3-18.61A4.67 4.67 0 003292.24 1961.7zM3463 1646.93a4.67 4.67 0 00-5.69-3.34h0c-.31.08-9.45 2.49-23.41 10.11a4.67 4.67 0 004.48 8.2 131.67 131.67 0 0115.69-7.37c1.86-.71 3.3-1.2 4.25-1.5l1-.32.25-.07h.05A4.67 4.67 0 003463 1646.93zM3308.91 1846.47a4.66 4.66 0 00-5.67 3.38h0q-5.56 22-9.73 47.07a4.67 4.67 0 109.22 1.51c2.71-16.49 5.93-31.9 9.56-46.29A4.66 4.66 0 003308.91 1846.47zM3343 1757.64a4.67 4.67 0 00-6.3 2h0a376.9 376.9 0 00-19.38 44.19 4.67 4.67 0 008.77 3.22 370.05 370.05 0 0118.89-43.1A4.67 4.67 0 003343 1757.64zM3394.51 1682.31h0a253.64 253.64 0 00-32.29 36.21 4.67 4.67 0 007.52 5.54 243.41 243.41 0 0131.09-34.87 4.67 4.67 0 00-6.32-6.88z"></path><path fill="#fff" d="M3292.55 1940.41a4.65 4.65 0 00-5.07 4.22h0q-1.09 11.92-1.85 24.48a4.67 4.67 0 109.32.56q.75-12.4 1.83-24.18A4.68 4.68 0 003292.55 1940.41zM3623.45 1953h0a188.22 188.22 0 00-18.26-17.17 4.67 4.67 0 00-6 7.16c5.66 4.75 10 8.84 12.93 11.72 1.46 1.44 2.56 2.58 3.29 3.35l.82.88.19.21 0 0h0a4.67 4.67 0 007-6.2zM3562.92 1906.86h0a240.74 240.74 0 00-47.28-19.95 4.67 4.67 0 00-2.67 8.95 231.83 231.83 0 0145.44 19.18 4.67 4.67 0 004.51-8.18zM3465 1878.12h0q-5.22-.27-10.58-.27a212.79 212.79 0 00-40.7 4 4.67 4.67 0 001.78 9.17 203.71 203.71 0 0138.92-3.78c3.41 0 6.78.09 10.11.25a4.67 4.67 0 10.47-9.32zM3364.69 1897.1h0q-11 4.76-22.31 10.85a4.67 4.67 0 004.45 8.21q10.93-5.91 21.56-10.48a4.67 4.67 0 00-3.7-8.58zM3598.86 1700.91h0c-.12 0-7.29-.7-19.09-.7-1.83 0-3.78 0-5.82.06a4.67 4.67 0 00.18 9.34q3-.06 5.64-.06c5.72 0 10.3.17 13.43.33 1.57.09 2.78.17 3.59.23l.9.07.22 0h.06a4.67 4.67 0 10.89-9.3zM3523.29 1705.2h0a262.14 262.14 0 00-49.19 13.66 4.67 4.67 0 003.41 8.69 253.38 253.38 0 0147.43-13.16 4.67 4.67 0 10-1.65-9.19zM3429 1743.37h0a166.12 166.12 0 00-19 16.33 4.67 4.67 0 006.6 6.61 157.45 157.45 0 0118-15.42 4.67 4.67 0 00-5.54-7.52z"></path><rect width="27.91" height="53.25" x="4590.8" y="1154.7" fill="#02232b" transform="rotate(12.43 4606.074 1181.817)"></rect><rect width="15.26" height="37.82" x="4437.47" y="1076.22" fill="#02232b" transform="rotate(12.43 4446.347 1095.61)"></rect><rect width="387.83" height="32.33" x="4244.43" y="1155.74" fill="#00a3cc" rx="9.24" transform="rotate(12.43 4439.61 1172.396)"></rect><rect width="206.86" height="16.87" x="4258.24" y="1090.97" fill="#00a3cc" rx="4.82" transform="rotate(12.43 4362.906 1099.865)"></rect><ellipse cx="4613.67" cy="1140.88" fill="#bde9ff" rx="27.3" ry="114.04" transform="rotate(-77.57 4613.455 1140.99)"></ellipse><ellipse cx="4450.43" cy="1070.95" fill="#bde9ff" rx="18.49" ry="77.24" transform="rotate(-77.57 4450.216 1071.048)"></ellipse><rect width="27.91" height="53.25" x="3764.66" y="972.55" fill="#02232b" transform="rotate(-167.57 3778.568 999.295)"></rect><rect width="15.26" height="37.82" x="3952.09" y="969.2" fill="#02232b" transform="rotate(-167.57 3959.675 988.234)"></rect><rect width="387.83" height="32.33" x="3739.64" y="1044.44" fill="#00a3cc" rx="9.24" transform="rotate(-167.57 3933.51 1060.724)"></rect><rect width="206.86" height="16.87" x="3930.18" y="1018.64" fill="#00a3cc" rx="4.82" transform="rotate(-167.57 4033.564 1027.198)"></rect><ellipse cx="3787.53" cy="958.74" fill="#bde9ff" rx="27.3" ry="114.04" transform="rotate(-77.57 3787.35 958.82)"></ellipse><ellipse cx="3965.05" cy="963.93" fill="#bde9ff" rx="18.49" ry="77.24" transform="rotate(-77.57 3964.863 964.016)"></ellipse><rect width="75.54" height="113.42" x="4124.76" y="1139.78" fill="#023240" rx="11.47" transform="matrix(.98 .22 -.22 .98 355.24 -868.17)"></rect><path fill="#fe4775" d="M4156.74,968.65h97.63a65.16,65.16,0,0,1,65.16,65.16V1086a0,0,0,0,1,0,0H4091.58a0,0,0,0,1,0,0v-52.24a65.16,65.16,0,0,1,65.16-65.16Z" transform="rotate(12.43 4206.76 1027.762)"></path><path fill="#00a3cc" d="M4104.7,1143.9l-104.49,38.54-26.08,53.39-7.39-1.63C3962.63,1217.65,3984,1175,3984,1175l93.32-47.35ZM4248,1175.51l78.6,78.9,1.21,59.41,7.39,1.63c10.68-13.29,9.28-61,9.28-61l-64.75-82.21Z"></path><path fill="#02232b" d="M4365.5,1186.51c-43.13-3.67-82.53-11.32-124.77-20.08-76-14.21-149.12-27.33-216.32-64.22-12.13-6.42-25-14.49-33.53-26l-1.71,7.73a48.49,48.49,0,0,0,36.92,57.8l294.19,64.87a48.53,48.53,0,0,0,50.14-19.48C4368.79,1186.87,4367.16,1186.66,4365.5,1186.51Z"></path><path fill="#023240" d="M4240.73,1166.43c42.24,8.76,81.64,16.41,124.77,20.08,1.66.15,3.29.36,4.92.6a48.37,48.37,0,0,0,7.66-17.44l7.48-33.91a48.49,48.49,0,0,0-36.92-57.8l-294.19-64.87a48.49,48.49,0,0,0-57.8,36.92l-5.77,26.18c8.56,11.53,21.4,19.6,33.53,26C4091.61,1139.1,4164.75,1152.22,4240.73,1166.43Z"></path><circle cx="4190.67" cy="1130.48" r="12.12" fill="#67848c"></circle><circle cx="4251.33" cy="1140.98" r="12.12" fill="#67848c"></circle><ellipse cx="2096.77" cy="2668.98" fill="#5a9108" rx="598.2" ry="116.61"></ellipse><ellipse cx="3506.23" cy="2601.55" fill="#5a9108" rx="423.11" ry="82.48"></ellipse><path fill="#023240" d="M2664.22,1928.74l62.71,28.55c25.16-14.53,33.64-72,33.64-72C2706.38,1869.08,2664.22,1928.74,2664.22,1928.74Z"></path><path fill="#fcced1" d="M2709.33,1928.67s33.45-48.48,47.06-40.62c-15.8,47.76-40.75,69.24-40.75,69.24Z"></path><path fill="#4c646b" d="M2700.12,1915.73s39.08-33.56,34.61-72.84c-.43-3.81-6.51,4.61-9.09,7.42-20,21.85-20.25,38.41-57.44,56.6C2673.1,1925.83,2693.38,1922.54,2700.12,1915.73Z"></path><path fill="#fff" d="M1608.86,2009a69.89,69.89,0,0,1,45.32-20l-7.12-25.58s-81.26,30.15-78.45,109.93c6.12-5.29,14-8.4,22.42-9.94C1591.57,2049.71,1594.55,2023.36,1608.86,2009Z"></path><path fill="#023240" d="M1591,2072.39s-.16-3.47,0-8.91c-8.42,1.54-16.3,4.65-22.42,9.94a121.66,121.66,0,0,0,1.08,12.43c-43,75.28,18.43,198.17,18.43,198.17s48-108,27.91-160.26C1599.08,2088.36,1591,2072.39,1591,2072.39Z"></path><path fill="#e2e4e6" d="M1751.77,2245.12v203.77l36.63,172.9h49.16l-25.36-174.4s94.73-127.85,94.73-156.82S1751.77,2245.12,1751.77,2245.12Z"></path><path fill="#fca6ac" d="M1932.61,2233.61l-180.84-9.88-29.23,77.52s15.79,42.2,61.62,65.68c-4.74,6.79-10.88,18.53-1.56,23.91,10.72,6.19,18.63-9.07,21.46-15.69,15.06,4.85,32.59,7.61,52.92,7-.82,5.95-.33,15.14,10.15,16.36,10.15,1.18,12-10.16,12.12-18.31a265.09,265.09,0,0,0,44.53-10.52l2.25-.74c2.18,9.06,7.5,22.95,19.08,17.91,11-4.76,6.5-17.61,2.1-25.94C2064.44,2309.72,1932.61,2233.61,1932.61,2233.61Z"></path><path fill="#e2e4e6" d="M2445.49,2207.44s-27.06,85.08-27.06,144.17c0,54.55-11,270.18-11,270.18h-32.26s-7.44-136.53-24.33-196.44c-24.58-84.49-38.41-151-38.41-151Z"></path><path fill="#fff" d="M2725.71,2129.44s-54.33,16.33-100.71-12.32a58.36,58.36,0,0,0-10.91-5.09c-37.88-13.57-80,3.08-99.28,38.37-3.94,7.19-8.23,14.84-12.81,22.7-17.81,30.56-39.82,64.16-61,85.34-13.51,13.51-27.58,27.34-40.78,40.18-15.72,15.28-30.2,29.18-41,39.5-11.78,11.27-19.24,18.29-19.24,18.29s-23.92,2-62.2,3.09c-113.76,3.16-354.29-2.15-470.22-94.29-18.71,36.8-68.78,117.61-81.36,141.2-24.58,46.08-13.57,215.38-13.57,215.38h-57.34s-13.64-156.59,10.94-264.54c-8.47-28.5-15.18-56.2-20.45-82.84l0-.16s0,0,0-.06a908.64,908.64,0,0,1-17.26-188.39c1.07-75.68,11.7-122.3,11.7-122.3,19.75-17.57,37.26-26.6,52.8-29,.29-.79.45-1.2.45-1.2,8.71-.66,17.42-1.26,26.14-1.85q20.25-1.4,40.5-2.68,69.39-4.44,138.86-7.7,30.74-1.44,61.47-2.63c30.23-1.17,60.62-1.11,91-1.38s60.82-.91,91-3.45a647.26,647.26,0,0,1,118.2.85,633.67,633.67,0,0,1,63.33,9.57c64.21,13.07,117.86,25.76,183.84,10.94,28-6.3,55.52-14.69,82.82-23.58,12.64-4.12,28.41-12.4,42-12.4a120.43,120.43,0,0,1,38.87,6.31h0a98.74,98.74,0,0,1,31.59,17.6h0q3.24,2.7,6.32,5.77c10.29,10.3,16.52,24.22,20.25,36.31a141.13,141.13,0,0,1,4.34,18.47c.78,4.75,1,7.69,1,7.69s2.42,11.55,8.05,29.44a461.69,461.69,0,0,0,17.57,46.87C2779,2109.43,2725.71,2129.44,2725.71,2129.44Z"></path><path fill="#023240" d="M2625.45,1899.63s60,74.42,50,109.24-57,63.81-83.64,22S2545,1925.37,2545,1925.37Z"></path><path fill="#023240" d="M2494.77,1885.84c-16.56,54.08,51.16,86.34,51.16,86.34s-13.33-30.61-11.29-42.2,40.48,2.25,40.48,2.25S2554.2,1879.39,2494.77,1885.84Z"></path><path fill="#4c646b" d="M2589.76,1919.46s-38.32-27.18-33.36-58.82a3.81,3.81,0,0,1,6.24-2.33c20.5,17.71,23.46,32.18,60.09,47C2618,1920.39,2596.27,1924.9,2589.76,1919.46Z"></path><ellipse cx="2632.34" cy="1996.41" fill="#fff" rx="14.47" ry="12.46"></ellipse><path fill="#fcced1" d="M2664.22,2127.84s-10.76-52.23,26.11-66.57,62.59-12.33,62.59-12.33,36.89,10.29,12.75,63.54C2741.32,2139.91,2676.76,2140.39,2664.22,2127.84Z"></path><circle cx="2699.4" cy="2100.34" r="8.04" fill="#021418"></circle><circle cx="2756.39" cy="2092.3" r="8.04" fill="#021418"></circle><path fill="#023240" d="M2295 1972.17c-6.56 42.31-37 16.73-91.77 7.63s-79.84 31-130.53 9.1c-34-14.67-28.6-50.12-21.36-71.87 30.43-.28 60.82-.9 91-3.44a647.14 647.14 0 01118.19.85C2280.78 1931.44 2298.06 1952.54 2295 1972.17zM1813.9 2096.47c-4.27 5.22-7.66 13.15-3.31 18.3 1.77 2.09 4.43 3.15 7 4.14l75.75 29.29c8.35 3.23 17.14 6.51 26 5.4 12.52-1.56 22.92-12.43 25.16-24.84 5.49-30.42-27.89-45.9-51.83-53C1865.33 2067.58 1832.49 2073.76 1813.9 2096.47zM2149.05 2174.09c-4.77 3.33-9.78 7.39-10.75 13.12-1.06 6.25 3.35 12.4 8.93 15.41s12.12 3.57 18.44 4.07c17.53 1.4 37.29 2.08 50.23-9.84 9.13-8.4 13-21.67 22.91-29.11 7.59-5.69 17.48-7 26.34-10.43s17.74-10.82 17.14-20.29c-.44-7.08-6.32-12.88-12.95-15.43s-13.92-2.48-21-2.38c-6.8.09-14.25.43-19.33 5-4.41 3.93-5.94 10.08-9 15.15-8.1 13.5-19.28 10.17-31.81 13.56C2174.08 2156.71 2161 2165.72 2149.05 2174.09zM2280.25 2101.42c-.47 3.63-.82 7.73 1.52 10.54 2 2.43 5.42 3.11 8.54 3.63l16.27 2.73c4.73.8 9.75 1.56 14.17-.3 18.4-7.72 4-36.14-6.07-44.79C2295.14 2056.49 2282.28 2085.88 2280.25 2101.42zM2391.54 2042.94c-2.84 6.35-22.95 46.56 22.14 41.32s78.7-17.54 59-47.87-33.95-34.57-41.57-17.7S2398.23 2028 2391.54 2042.94z"></path><path fill="#d5d7d8" d="M2267,2245.12s-47.18,51.89-11.57,118.36l40-5.14Z"></path><path fill="#fff" d="M2418.43,2221s-8.94,35.55-18.21,77.58c-3.43,15.51-6.9,31.9-10,47.72-5.94,30.41-10.44,58.67-10.44,74.4,0,46.09-38.38,211.29-38.38,211.29H2310.7l-4.41-188.24-28.53-84.29c-8.65-25.55-17.74-52.41-24.87-73.49-19.45-57.46,7.31-114.13,7.31-114.13l140.26,43.58Z"></path><path fill="#d5d7d8" d="M1807.54,2265.2s29-43.54,29-65.4c6.56,64.49,6.56,88.84,6.56,88.84Z"></path><path fill="#021a20" d="M2375.17 2621.79l4.17 49.69 60.24-5s-22.76-64.93-32.15-59.51S2375.17 2621.79 2375.17 2621.79zM2307.59 2626.16v51.05l52.08-5.73s-3.42-58.52-12.81-53.11S2307.59 2626.16 2307.59 2626.16zM1791.63 2621.79l12.28 49.69h60.75s-18.54-62.49-27.92-57.07S1791.63 2621.79 1791.63 2621.79zM1652.34 2621.79l12.28 49.69h60.75s-12.25-58.86-21.63-53.44S1652.34 2621.79 1652.34 2621.79z"></path><path fill="#023240" d="M1682.33 2207.44c-22.45 67-36.56 67-36.56 67v0a.8.8 0 000-.16s0 0 0-.06a908.64 908.64 0 01-17.26-188.39C1645.72 2099.84 1701.39 2150.58 1682.33 2207.44zM1870.53 1963.49c-41.7 13.07-52.39 18-92 9.4-24.61-5.33-23.15-27.86-18.53-44.14q69.39-4.44 138.86-7.7C1905.08 1936.89 1897.39 1955.08 1870.53 1963.49zM2743 2020.58c-7.59 8.27-26.84-1.07-30.58-24.16-4.41-27.11-40.44-90.15-41-91.13a98.74 98.74 0 0131.59 17.6h0q3.24 2.7 6.32 5.77c10.29 10.3 16.52 24.22 20.25 36.31a141.13 141.13 0 014.34 18.47c.78 4.75 1 7.69 1 7.69S2737.35 2002.69 2743 2020.58zM2502 2173.1c-17.81 30.56-39.82 64.16-61 85.34-13.51 13.51-27.58 27.34-40.78 40.18-3.43 15.51-6.9 31.9-10 47.72-9.48 1.93-17.91 2-23.61-1.33a20.25 20.25 0 01-7.44-6.89c-8.38-13.66 5.39-35.93 7.44-68 1.79-28.06 6.5-41 33.82-54.69 9.82-4.94 22.56-10 39.13-15.88C2470.9 2188.44 2490.36 2179.38 2502 2173.1z"></path><path fill="#fcced1" d="M2545.93,1972.18s-40.23-48.84-29.9-59.18,55.1,17.9,55.1,17.9Z"></path><path fill="#023240" d="M3073.06,2137l-47.14,26.21c-20.54-9.76-30.76-54.06-30.76-54.06C3036.43,2093.1,3073.06,2137,3073.06,2137Z"></path><path fill="#fcced1" d="M3037.86,2139.77s-29.13-35.72-39.26-28.74c15.32,36.28,36.13,51.47,36.13,51.47Z"></path><path fill="#4c646b" d="M3044.24,2129.1s-32.6-23.73-31.57-54.66c.09-3,5.37,3.19,7.55,5.22,17,15.8,18.21,28.7,48.37,40.56C3066,2135.29,3049.92,2134,3044.24,2129.1Z"></path><path fill="#fff" d="M3877.07,2128.87a54.7,54.7,0,0,0-35.47-15.63l5.57-20s63.61,23.6,61.41,86.05c-4.79-4.15-11-6.58-17.55-7.79C3890.61,2160.7,3888.28,2140.08,3877.07,2128.87Z"></path><path fill="#023240" d="M3891.07,2178.46s.13-2.72,0-7c6.59,1.21,12.76,3.64,17.55,7.79a96.27,96.27,0,0,1-.85,9.73c33.67,58.91-14.43,155.11-14.43,155.11s-37.57-84.56-21.84-125.45C3884.73,2191,3891.07,2178.46,3891.07,2178.46Z"></path><path fill="#e2e4e6" d="M3765.21,2313.66v159.49l-28.67,135.34h-38.48L3717.91,2472s-74.15-100.07-74.15-122.74S3765.21,2313.66,3765.21,2313.66Z"></path><path fill="#fca6ac" d="M3623.66,2304.65l141.55-7.74,22.88,60.68s-12.36,33-48.23,51.41c3.71,5.32,8.51,14.51,1.22,18.72-8.39,4.85-14.58-7.1-16.79-12.28a121.9,121.9,0,0,1-41.43,5.46c.64,4.66.26,11.86-8,12.81-7.94.92-9.42-7.95-9.48-14.33a209.16,209.16,0,0,1-34.86-8.23l-1.76-.59c-1.7,7.1-5.87,18-14.93,14-8.57-3.72-5.09-13.78-1.65-20.31C3520.47,2364.22,3623.66,2304.65,3623.66,2304.65Z"></path><path fill="#e2e4e6" d="M3278.35,2263.52s10.45,69.1,3.18,114.77c-6.7,42.17-.84,215.79-.84,215.79l25.23-.92s-1.63-105.32,18.8-149.55c29.39-62.29,48.26-112,48.26-112Z"></path><path fill="#fff" d="M3848.23,2336.41s0,0,0,.05,0,.09,0,.13c-4.13,20.85-9.38,42.53-16,64.84,19.24,84.5,8.57,207.06,8.57,207.06h-44.89s8.62-132.51-10.62-168.58c-9.85-18.47-49-81.72-63.68-110.52-90.75,72.12-252.82,63.59-341.86,61.12-30-.83-48.69-2.42-48.69-2.42s-5.84-5.49-15.06-14.32c-8.47-8.07-19.8-18.95-32.11-30.91-10.33-10.05-21.34-20.88-31.92-31.45-11.88-11.88-16.34-29.26-28.11-38.58-4.65-3.7-10.43-6.13-18.27-6.47-22.16-1-53.17-2.45-81.88,10.51a46.2,46.2,0,0,0-8.2,4.66c-34.39,25.26-77.8,15.91-77.8,15.91s-42.82-12.26-31.06-46.18a363.06,363.06,0,0,0,10.77-37.67c3.27-14.31,4.43-23.47,4.43-23.47s0-2.31.31-6.07a112.09,112.09,0,0,1,2.22-14.68c2.16-9.67,6.15-20.92,13.53-29.6,1.47-1.72,3-3.36,4.57-4.9h0a77.16,77.16,0,0,1,23.55-15.72h0a94.42,94.42,0,0,1,29.93-7.35c10.6-.85,23.42,4.62,33.54,7,21.86,5.22,43.83,10.05,66.09,13.21,52.41,7.42,97.79-72.17,148.05-82.41a496.88,496.88,0,0,1,49.57-7.49q9.3-.93,18.63-1.5a507.71,507.71,0,0,1,73.89.84c14.45,1.22,45.93,6.77,73.58,11.11,17.51,2.74,33.48,5,42.65,5.35q24.06.95,48.12,2.06,54.38,2.53,108.69,6,15.84,1,31.7,2.09c6.82.46,13.64.93,20.46,1.45l.35.94c12.17,1.89,25.87,9,41.33,22.72,0,0,8.32,36.49,9.16,95.72A711.68,711.68,0,0,1,3848.23,2336.41Z"></path><path fill="#023240" d="M3101.49,2111.86s-42.16,61.83-32.19,88.37,48.49,46.22,66.64,11.92,29.9-85.25,29.9-85.25Z"></path><path fill="#023240" d="M3202.59,2092.92c16.3,41.15-34.51,70.56-34.51,70.56s8.48-24.71,6.16-33.63-31.44,4.3-31.44,4.3S3155.81,2091.61,3202.59,2092.92Z"></path><path fill="#4c646b" d="M3130.58,2125.1s28.19-23.61,22.34-48a3,3,0,0,0-5-1.43c-14.89,15.11-16.29,26.58-43.95,40.42C3108.61,2127.59,3125.83,2129.75,3130.58,2125.1Z"></path><ellipse cx="3102.18" cy="2187.81" fill="#fff" rx="11.32" ry="9.75" transform="rotate(-4.59 3103.537 2188.736)"></ellipse><path fill="#fcced1" d="M3085.54,2292.35s5.12-41.43-24.55-50.3-49.6-5.7-49.6-5.7-28.14,10.33-6,50.37C3026.14,2306.59,3076.54,2302.92,3085.54,2292.35Z"></path><circle cx="3056.37" cy="2273.1" r="6.29" fill="#021418"></circle><circle cx="3011.4" cy="2270.39" r="6.29" fill="#021418"></circle><path fill="#023240" d="M3540.19 2100.43c-39.67 17.11-59.3-14.25-102.17-7.12s-66.69 27.14-71.83-6c-2.38-15.37 11.14-31.89 27-45.19q9.3-.93 18.63-1.51a507.71 507.71 0 0173.89.84c14.45 1.22 45.93 6.77 73.58 11.11C3563.14 2069.26 3562.75 2090.7 3540.19 2100.43zM3716.58 2197.31c3.34 4.08 6 10.29 2.59 14.32-1.38 1.64-3.47 2.47-5.46 3.24l-59.29 22.92c-6.54 2.53-13.42 5.11-20.38 4.24-9.8-1.23-17.94-9.73-19.69-19.45-4.3-23.81 21.83-35.93 40.57-41.51C3676.32 2174.69 3702 2179.53 3716.58 2197.31zM3480.45 2245.38c3.73 2.61 7.66 5.78 8.41 10.27.83 4.89-2.62 9.7-7 12.06s-9.48 2.79-14.43 3.19c-13.72 1.09-29.19 1.62-39.32-7.7-7.14-6.58-10.15-17-17.93-22.79-5.94-4.45-13.69-5.49-20.62-8.16s-13.88-8.47-13.42-15.88c.35-5.55 4.95-10.09 10.14-12.08s10.9-1.94 16.45-1.87c5.33.08 11.16.34 15.14 3.88 3.45 3.08 4.64 7.9 7 11.86 6.34 10.57 15.09 8 24.89 10.62C3460.86 2231.77 3471.09 2238.83 3480.45 2245.38zM3377.75 2188.5c.37 2.84.64 6.05-1.19 8.25-1.58 1.9-4.24 2.43-6.68 2.84l-12.74 2.14c-3.7.62-7.63 1.22-11.09-.23-14.4-6.05-3.16-28.3 4.75-35.07C3366.1 2153.33 3376.16 2176.34 3377.75 2188.5zM3290.64 2142.73c2.22 5 18 36.44-17.33 32.33s-61.6-13.72-46.2-37.47 26.57-27.05 32.54-13.85S3285.41 2131 3290.64 2142.73z"></path><path fill="#d5d7d8" d="M3388.16,2301s36.93,40.62,9.06,92.64l-31.3-4Z"></path><path fill="#fff" d="M3279.26,2277.57s11.8,26.16,24.73,57.27c4.79,11.47,9.72,23.62,14.27,35.39,8.77,22.61,16.13,43.76,18.3,55.88,6.36,35.51,58.72,157.51,58.72,157.51l23.67-4.24-22.56-145.65,10.36-68.88c3.14-20.88,6.44-42.83,9-60,7.06-47-21.37-86.93-21.37-86.93l-102.06,52.92Z"></path><path fill="#d5d7d8" d="M3721.56,2329.38s-22.69-34.08-22.69-51.19c-5.14,50.48-5.14,69.53-5.14,69.53Z"></path><path fill="#021a20" d="M3308.49 2577.05l-1.85 39-47.26-2.17s16-51.44 23.45-47.48S3308.49 2577.05 3308.49 2577.05zM3420.54 2574.43l7 39.33-40.92 2.77s-5.43-45.56 2.55-42.68S3420.54 2574.43 3420.54 2574.43zM3734 2608.49l-9.61 38.9h-47.55s14.51-48.91 21.86-44.67S3734 2608.49 3734 2608.49zM3843 2608.49l-9.61 38.9h-47.55s9.59-46.07 16.93-41.83S3843 2608.49 3843 2608.49z"></path><path fill="#023240" d="M3819.57 2284.16c17.57 52.44 28.61 52.44 28.61 52.44v0s0-.06 0-.12l0-.05A711.1 711.1 0 003861.74 2189C3848.22 2199.94 3804.65 2239.66 3819.57 2284.16zM3672.25 2093.21c32.65 10.23 41 14.05 72 7.36 19.26-4.17 18.12-21.81 14.5-34.55q-54.31-3.48-108.69-6C3645.21 2072.39 3651.23 2086.63 3672.25 2093.21zM3017.37 2213.59c6.44 6 20.87-2.51 22.34-20.76 1.74-21.43 25.91-72.88 26.28-73.68a77.24 77.24 0 00-23.54 15.72h0c-1.57 1.54-3.1 3.18-4.57 4.9-7.38 8.68-11.37 19.94-13.52 29.6a110.67 110.67 0 00-2.23 14.68c-.31 3.76-.31 6.07-.31 6.07S3020.64 2199.28 3017.37 2213.59zM3316 2373.76a15.8 15.8 0 01-5.82 5.4c-4.46 2.57-11.06 2.55-18.48 1-2.4-12.38-5.12-25.21-7.81-37.35-10.33-10-21.34-20.88-31.92-31.45-11.88-11.88-16.34-29.26-28.11-38.58 6.26-5.55 14.56-12.71 29.22-7.5 13 4.62 22.94 8.57 30.63 12.43 21.38 10.75 25.07 20.85 26.47 42.81C3311.73 2345.64 3322.51 2363.07 3316 2373.76z"></path><path fill="#fcced1" d="M3168.08,2163.48s28.33-40.62,19.61-48-41.86,17.41-41.86,17.41Z"></path><path fill="#bdb8b9" d="M3628.17 2512a51.41 51.41 0 00-51.41-51.41h0a51.42 51.42 0 00-51.42 51.41v415.37h102.83zM3976.17 2436.91c0-28.4-24.61-45.12-55-37.34h0c-30.35 7.77-54.95 37.09-54.95 65.48v415.37l109.9-28.14z"></path><path fill="#ebe4e6" d="M3642.43 2512a51.42 51.42 0 00-51.42-51.41h0A51.41 51.41 0 003539.6 2512v415.37h102.83zM3990.42 2436.91c0-28.4-24.6-45.12-55-37.34h0c-30.34 7.77-54.94 37.09-54.94 65.48v415.37l109.89-28.14z"></path><path fill="#bdb8b9" d="M4262.81,2373.47c0-28.4-23.87-46-53.3-39.42h0c-29.44,6.63-53.3,35-53.3,63.41v415.37l106.6-24Z"></path><path fill="#ebe4e6" d="M4278.67,2373.47c0-28.4-23.86-46-53.3-39.42h0c-29.43,6.63-53.3,35-53.3,63.41v415.37l106.6-24Z"></path><path fill="#bdb8b9" d="M4543.08,2299a51.41,51.41,0,0,0-51.42-51.41h0a51.41,51.41,0,0,0-51.41,51.41v415.37L4543.08,2671Z"></path><path fill="#ebe4e6" d="M4554.48,2299a51.41,51.41,0,0,0-51.41-51.41h0a51.4,51.4,0,0,0-51.41,51.41v415.37L4554.48,2671Z"></path><path fill="#bfbbbc" d="M3397.3 2580.19s985.67-67.62 1288.82-242.64c0 0 26.88-20.92 26.88 0s3.61 43.73-21.36 58.15c-58.61 33.83-568.25 201.83-1294.34 238-48.75.77-42.15-31.17-26.28-47C3380.94 2576.78 3397.3 2580.19 3397.3 2580.19zM3397.3 2732.91s985.67-67.63 1288.82-242.65c0 0 26.88-20.91 26.88 0s3.61 43.74-21.36 58.16c-58.61 33.83-568.25 201.82-1294.34 238-48.75.77-42.15-31.17-26.28-47C3380.94 2729.49 3397.3 2732.91 3397.3 2732.91z"></path><circle cx="3593.54" cy="2594.86" r="13.9" fill="#fff"></circle><circle cx="3593.54" cy="2743.14" r="13.9" fill="#fff"></circle><circle cx="3941.78" cy="2552.36" r="13.9" fill="#fff"></circle><circle cx="3941.78" cy="2700.64" r="13.9" fill="#fff"></circle><circle cx="4225.37" cy="2506.74" r="13.9" fill="#fff"></circle><circle cx="4225.37" cy="2655.02" r="13.9" fill="#fff"></circle><circle cx="4512.09" cy="2439.37" r="13.9" fill="#fff"></circle><circle cx="4512.09" cy="2587.65" r="13.9" fill="#fff"></circle><path fill="#b1e9fa" d="M4908.43,2057.36s-121.9-6.27-115.48,110.21,150.77,47,163.6-22.53S4959.93,2049.32,4908.43,2057.36Z"></path><ellipse cx="4815.76" cy="2321.72" fill="#b1e9fa" rx="43.49" ry="48.94"></ellipse><path fill="#fff" d="M2748.71,1211.33h417s-21.39-179.64-128.32-89.82c-53.46-156.12-177.5-36.36-177.5,10.69C2791.48,1027.41,2685.62,1148.24,2748.71,1211.33Z"></path><rect width="856.72" height="352.2" x="3827.71" y="1385.48" fill="#a0d5fd" opacity=".4" rx="86.88"></rect><rect width="788.53" height="286.61" x="3861.81" y="1418.27" fill="#fff" opacity=".8" rx="75.19"></rect><path fill="#93c74b" d="M3951.22,1487.68a12.43,12.43,0,0,0-12.43,12.43h0a12.43,12.43,0,0,0,12.43,12.43H4145.5v-24.86Z"></path><path fill="#a0d5fd" d="M4176.63,1487.68H4145.5v24.86h31.13a12.42,12.42,0,0,0,12.43-12.43h0A12.42,12.42,0,0,0,4176.63,1487.68Z" opacity=".4"></path><path fill="#93c74b" d="M3951.22,1545.69a12.43,12.43,0,0,0-12.43,12.43h0a12.43,12.43,0,0,0,12.43,12.43h173.84v-24.86Z"></path><path fill="#a0d5fd" d="M4176.63 1545.69h-51.57v24.86h51.57a12.42 12.42 0 0012.43-12.43h0A12.42 12.42 0 004176.63 1545.69zM4176.63 1603.7H4037.06v24.86h139.57a12.42 12.42 0 0012.43-12.43h0A12.42 12.42 0 004176.63 1603.7z" opacity=".4"></path><path fill="#93c74b" d="M3951.22,1603.7a12.43,12.43,0,0,0-12.43,12.43h0a12.43,12.43,0,0,0,12.43,12.43h85.84V1603.7Z"></path><path fill="#fde81d" d="M4596,1501a61.46,61.46,0,0,0-57.42,15.33c-11,10.82-18.73,26.45-33.42,31.22-18.76,6.1-39.52-8.81-58.34-2.91-15.21,4.77-23.21,21.09-35.44,31.32a51.49,51.49,0,0,1-46.33,9.83c-9.91-2.83-18.8-8.63-28.79-11.16-19.06-4.81-39.54,3.23-54.38,16.12-8.74,7.6-15.9,16.69-22.35,26.35H4596Z"></path><rect width="113.28" height="27.59" x="4279.83" y="1485.35" fill="#19767b"></rect><rect width="314.61" height="338.48" x="3493.62" y="1169.78" fill="#a0d5fd" opacity=".4" rx="61.18" transform="rotate(90 3650.93 1339.02)"></rect><rect width="246.54" height="227.59" x="3527.66" y="1225.23" fill="#fff" opacity=".8" rx="37.46"></rect><path fill="#fde81d" d="M3725.47,1329.05a83,83,0,1,1-1.23-14.27A83,83,0,0,1,3725.47,1329.05Z"></path><path fill="#19767b" d="M3724.24,1314.78l-81.82,14.27,47.4-68.2A83,83,0,0,1,3724.24,1314.78Z"></path><ellipse cx="2567.73" cy="843.47" fill="#b1e9fa" rx="139.62" ry="115.26"></ellipse></svg>